<svg width="162" height="50" viewBox="0 0 162 50" fill="none" xmlns="http://www.w3.org/2000/svg">
<mask id="path-1-outside-1_41_17" maskUnits="userSpaceOnUse" x="12" y="14" width="139" height="31" fill="black">
<rect fill="white" x="12" y="14" width="139" height="31"/>
<path d="M28.3535 28.84V30.49C28.7535 30.53 29.4535 30.55 30.4535 30.55C32.3335 30.55 34.0135 30.49 35.4935 30.37L36.2135 30.31V39.28C34.2735 39.96 31.5135 40.3 27.9335 40.3C24.3735 40.3 21.6435 39.39 19.7435 37.57C17.8635 35.75 16.9235 33.05 16.9235 29.47C16.9235 25.87 17.8535 23.22 19.7135 21.52C21.5735 19.82 24.3435 18.97 28.0235 18.97C29.5635 18.97 31.0135 19.06 32.3735 19.24C33.7535 19.42 34.7335 19.6 35.3135 19.78L36.2135 20.05V29.29C34.4735 28.99 31.8535 28.84 28.3535 28.84ZM37.0587 19.27H47.3787V32.29H50.4387V40H37.0587V19.27ZM51.2466 40V19.27H61.5666V40H51.2466ZM73.8469 28.84V30.49C74.2469 30.53 74.9469 30.55 75.9469 30.55C77.8269 30.55 79.5069 30.49 80.9869 30.37L81.7069 30.31V39.28C79.7669 39.96 77.0069 40.3 73.4269 40.3C69.8669 40.3 67.1369 39.39 65.2369 37.57C63.3569 35.75 62.4169 33.05 62.4169 29.47C62.4169 25.87 63.3469 23.22 65.2069 21.52C67.0669 19.82 69.8369 18.97 73.5169 18.97C75.0569 18.97 76.5069 19.06 77.8669 19.24C79.2469 19.42 80.2269 19.6 80.8069 19.78L81.7069 20.05V29.29C79.9669 28.99 77.3469 28.84 73.8469 28.84ZM92.872 34.3V40H82.552V19.27H92.872V28.63H93.532L94.822 19.27H105.322L101.662 29.62L105.322 40H94.762L93.532 34.3H92.872ZM105.705 19.27H122.505V28H116.025V29.2H122.505V31.09H116.025V32.29H122.775V40H105.705V19.27ZM133.904 33.94V40H123.584V19.27H134.474C138.054 19.27 140.684 19.86 142.364 21.04C144.044 22.2 144.884 24.22 144.884 27.1C144.884 29.28 144.174 30.89 142.754 31.93C143.954 34.07 144.864 36.76 145.484 40H135.614C135.454 37.98 135.174 36.2 134.774 34.66L134.564 33.94H133.904ZM133.904 31.51H134.774C135.014 31.51 135.214 31.43 135.374 31.27C135.534 31.11 135.614 30.9 135.614 30.64V28.84C135.614 28.58 135.534 28.38 135.374 28.24C135.214 28.08 135.014 28 134.774 28H133.904V31.51Z"/>
</mask>
<path d="M28.3535 28.84V30.49C28.7535 30.53 29.4535 30.55 30.4535 30.55C32.3335 30.55 34.0135 30.49 35.4935 30.37L36.2135 30.31V39.28C34.2735 39.96 31.5135 40.3 27.9335 40.3C24.3735 40.3 21.6435 39.39 19.7435 37.57C17.8635 35.75 16.9235 33.05 16.9235 29.47C16.9235 25.87 17.8535 23.22 19.7135 21.52C21.5735 19.82 24.3435 18.97 28.0235 18.97C29.5635 18.97 31.0135 19.06 32.3735 19.24C33.7535 19.42 34.7335 19.6 35.3135 19.78L36.2135 20.05V29.29C34.4735 28.99 31.8535 28.84 28.3535 28.84ZM37.0587 19.27H47.3787V32.29H50.4387V40H37.0587V19.27ZM51.2466 40V19.27H61.5666V40H51.2466ZM73.8469 28.84V30.49C74.2469 30.53 74.9469 30.55 75.9469 30.55C77.8269 30.55 79.5069 30.49 80.9869 30.37L81.7069 30.31V39.28C79.7669 39.96 77.0069 40.3 73.4269 40.3C69.8669 40.3 67.1369 39.39 65.2369 37.57C63.3569 35.75 62.4169 33.05 62.4169 29.47C62.4169 25.87 63.3469 23.22 65.2069 21.52C67.0669 19.82 69.8369 18.97 73.5169 18.97C75.0569 18.97 76.5069 19.06 77.8669 19.24C79.2469 19.42 80.2269 19.6 80.8069 19.78L81.7069 20.05V29.29C79.9669 28.99 77.3469 28.84 73.8469 28.84ZM92.872 34.3V40H82.552V19.27H92.872V28.63H93.532L94.822 19.27H105.322L101.662 29.62L105.322 40H94.762L93.532 34.3H92.872ZM105.705 19.27H122.505V28H116.025V29.2H122.505V31.09H116.025V32.29H122.775V40H105.705V19.27ZM133.904 33.94V40H123.584V19.27H134.474C138.054 19.27 140.684 19.86 142.364 21.04C144.044 22.2 144.884 24.22 144.884 27.1C144.884 29.28 144.174 30.89 142.754 31.93C143.954 34.07 144.864 36.76 145.484 40H135.614C135.454 37.98 135.174 36.2 134.774 34.66L134.564 33.94H133.904ZM133.904 31.51H134.774C135.014 31.51 135.214 31.43 135.374 31.27C135.534 31.11 135.614 30.9 135.614 30.64V28.84C135.614 28.58 135.534 28.38 135.374 28.24C135.214 28.08 135.014 28 134.774 28H133.904V31.51Z" fill="#F11919"/>
<path d="M28.3535 28.84V24.84H24.3535V28.84H28.3535ZM28.3535 30.49H24.3535V34.11L27.9555 34.4701L28.3535 30.49ZM35.4935 30.37L35.8168 34.3569L35.8257 34.3562L35.4935 30.37ZM36.2135 30.31H40.2135V25.9628L35.8813 26.3238L36.2135 30.31ZM36.2135 39.28L37.5366 43.0548L40.2135 42.1165V39.28H36.2135ZM19.7435 37.57L16.9613 40.4439L16.9689 40.4513L16.9766 40.4586L19.7435 37.57ZM19.7135 21.52L17.0149 18.5674L17.0149 18.5674L19.7135 21.52ZM32.3735 19.24L31.8487 23.2054L31.8562 23.2064L32.3735 19.24ZM35.3135 19.78L34.1279 23.6003L34.146 23.6059L34.1641 23.6113L35.3135 19.78ZM36.2135 20.05H40.2135V17.0739L37.3629 16.2187L36.2135 20.05ZM36.2135 29.29L35.5339 33.2318L40.2135 34.0387V29.29H36.2135ZM24.3535 28.84V30.49H32.3535V28.84H24.3535ZM27.9555 34.4701C28.5767 34.5323 29.4584 34.55 30.4535 34.55V26.55C29.4486 26.55 28.9304 26.5277 28.7515 26.5099L27.9555 34.4701ZM30.4535 34.55C32.4145 34.55 34.2054 34.4876 35.8168 34.3569L35.1703 26.3831C33.8216 26.4924 32.2525 26.55 30.4535 26.55V34.55ZM35.8257 34.3562L36.5457 34.2962L35.8813 26.3238L35.1613 26.3838L35.8257 34.3562ZM32.2135 30.31V39.28H40.2135V30.31H32.2135ZM34.8904 35.5052C33.5786 35.965 31.3453 36.3 27.9335 36.3V44.3C31.6817 44.3 34.9684 43.955 37.5366 43.0548L34.8904 35.5052ZM27.9335 36.3C25.0329 36.3 23.4349 35.5669 22.5105 34.6814L16.9766 40.4586C19.8521 43.2131 23.7141 44.3 27.9335 44.3V36.3ZM22.5257 34.6961C21.6764 33.8739 20.9235 32.377 20.9235 29.47H12.9235C12.9235 33.723 14.0506 37.6261 16.9613 40.4439L22.5257 34.6961ZM20.9235 29.47C20.9235 26.5014 21.6855 25.1366 22.4121 24.4726L17.0149 18.5674C14.0215 21.3033 12.9235 25.2386 12.9235 29.47H20.9235ZM22.4121 24.4726C23.2576 23.6998 24.8891 22.97 28.0235 22.97V14.97C23.7979 14.97 19.8895 15.9402 17.0149 18.5674L22.4121 24.4726ZM28.0235 22.97C29.4089 22.97 30.6823 23.051 31.8487 23.2054L32.8983 15.2746C31.3448 15.069 29.7181 14.97 28.0235 14.97V22.97ZM31.8562 23.2064C33.2233 23.3847 33.9044 23.5309 34.1279 23.6003L36.4991 15.9597C35.5626 15.6691 34.2837 15.4553 32.8909 15.2736L31.8562 23.2064ZM34.1641 23.6113L35.0641 23.8813L37.3629 16.2187L36.4629 15.9487L34.1641 23.6113ZM32.2135 20.05V29.29H40.2135V20.05H32.2135ZM36.8931 25.3482C34.8045 24.9881 31.9057 24.84 28.3535 24.84V32.84C31.8014 32.84 34.1425 32.9919 35.5339 33.2318L36.8931 25.3482ZM37.0587 19.27V15.27H33.0587V19.27H37.0587ZM47.3787 19.27H51.3787V15.27H47.3787V19.27ZM47.3787 32.29H43.3787V36.29H47.3787V32.29ZM50.4387 32.29H54.4387V28.29H50.4387V32.29ZM50.4387 40V44H54.4387V40H50.4387ZM37.0587 40H33.0587V44H37.0587V40ZM37.0587 23.27H47.3787V15.27H37.0587V23.27ZM43.3787 19.27V32.29H51.3787V19.27H43.3787ZM47.3787 36.29H50.4387V28.29H47.3787V36.29ZM46.4387 32.29V40H54.4387V32.29H46.4387ZM50.4387 36H37.0587V44H50.4387V36ZM41.0587 40V19.27H33.0587V40H41.0587ZM51.2466 40H47.2466V44H51.2466V40ZM51.2466 19.27V15.27H47.2466V19.27H51.2466ZM61.5666 19.27H65.5666V15.27H61.5666V19.27ZM61.5666 40V44H65.5666V40H61.5666ZM55.2466 40V19.27H47.2466V40H55.2466ZM51.2466 23.27H61.5666V15.27H51.2466V23.27ZM57.5666 19.27V40H65.5666V19.27H57.5666ZM61.5666 36H51.2466V44H61.5666V36ZM73.8469 28.84V24.84H69.8469V28.84H73.8469ZM73.8469 30.49H69.8469V34.11L73.4489 34.4701L73.8469 30.49ZM80.9869 30.37L81.3101 34.3569L81.3191 34.3562L80.9869 30.37ZM81.7069 30.31H85.7069V25.9628L81.3747 26.3238L81.7069 30.31ZM81.7069 39.28L83.03 43.0548L85.7069 42.1165V39.28H81.7069ZM65.2369 37.57L62.4547 40.4439L62.4623 40.4513L62.4699 40.4586L65.2369 37.57ZM65.2069 21.52L62.5083 18.5674L62.5083 18.5674L65.2069 21.52ZM77.8669 19.24L77.342 23.2054L77.3495 23.2064L77.8669 19.24ZM80.8069 19.78L79.6213 23.6003L79.6394 23.6059L79.6575 23.6113L80.8069 19.78ZM81.7069 20.05H85.7069V17.0739L82.8563 16.2187L81.7069 20.05ZM81.7069 29.29L81.0272 33.2318L85.7069 34.0387V29.29H81.7069ZM69.8469 28.84V30.49H77.8469V28.84H69.8469ZM73.4489 34.4701C74.07 34.5323 74.9517 34.55 75.9469 34.55V26.55C74.942 26.55 74.4237 26.5277 74.2449 26.5099L73.4489 34.4701ZM75.9469 34.55C77.9079 34.55 79.6988 34.4876 81.3101 34.3569L80.6636 26.3831C79.3149 26.4924 77.7458 26.55 75.9469 26.55V34.55ZM81.3191 34.3562L82.0391 34.2962L81.3747 26.3238L80.6547 26.3838L81.3191 34.3562ZM77.7069 30.31V39.28H85.7069V30.31H77.7069ZM80.3837 35.5052C79.072 35.965 76.8387 36.3 73.4269 36.3V44.3C77.1751 44.3 80.4618 43.955 83.03 43.0548L80.3837 35.5052ZM73.4269 36.3C70.5263 36.3 68.9282 35.5669 68.0038 34.6814L62.4699 40.4586C65.3455 43.2131 69.2075 44.3 73.4269 44.3V36.3ZM68.0191 34.6961C67.1698 33.8739 66.4169 32.377 66.4169 29.47H58.4169C58.4169 33.723 59.544 37.6261 62.4547 40.4439L68.0191 34.6961ZM66.4169 29.47C66.4169 26.5014 67.1789 25.1366 67.9055 24.4726L62.5083 18.5674C59.5149 21.3033 58.4169 25.2386 58.4169 29.47H66.4169ZM67.9055 24.4726C68.7509 23.6998 70.3825 22.97 73.5169 22.97V14.97C69.2913 14.97 65.3828 15.9402 62.5083 18.5674L67.9055 24.4726ZM73.5169 22.97C74.9023 22.97 76.1756 23.051 77.342 23.2054L78.3917 15.2746C76.8381 15.069 75.2115 14.97 73.5169 14.97V22.97ZM77.3495 23.2064C78.7167 23.3847 79.3978 23.5309 79.6213 23.6003L81.9925 15.9597C81.056 15.6691 79.7771 15.4553 78.3842 15.2736L77.3495 23.2064ZM79.6575 23.6113L80.5575 23.8813L82.8563 16.2187L81.9563 15.9487L79.6575 23.6113ZM77.7069 20.05V29.29H85.7069V20.05H77.7069ZM82.3865 25.3482C80.2979 24.9881 77.399 24.84 73.8469 24.84V32.84C77.2947 32.84 79.6359 32.9919 81.0272 33.2318L82.3865 25.3482ZM92.872 34.3V30.3H88.872V34.3H92.872ZM92.872 40V44H96.872V40H92.872ZM82.552 40H78.552V44H82.552V40ZM82.552 19.27V15.27H78.552V19.27H82.552ZM92.872 19.27H96.872V15.27H92.872V19.27ZM92.872 28.63H88.872V32.63H92.872V28.63ZM93.532 28.63V32.63H97.0186L97.4946 29.1761L93.532 28.63ZM94.822 19.27V15.27H91.3355L90.8595 18.7239L94.822 19.27ZM105.322 19.27L109.093 20.6036L110.979 15.27H105.322V19.27ZM101.662 29.62L97.8909 28.2864L97.42 29.6181L97.8897 30.9501L101.662 29.62ZM105.322 40V44H110.974L109.094 38.6699L105.322 40ZM94.762 40L90.852 40.8437L91.5331 44H94.762V40ZM93.532 34.3L97.442 33.4563L96.7609 30.3H93.532V34.3ZM88.872 34.3V40H96.872V34.3H88.872ZM92.872 36H82.552V44H92.872V36ZM86.552 40V19.27H78.552V40H86.552ZM82.552 23.27H92.872V15.27H82.552V23.27ZM88.872 19.27V28.63H96.872V19.27H88.872ZM92.872 32.63H93.532V24.63H92.872V32.63ZM97.4946 29.1761L98.7846 19.8161L90.8595 18.7239L89.5695 28.0839L97.4946 29.1761ZM94.822 23.27H105.322V15.27H94.822V23.27ZM101.551 17.9364L97.8909 28.2864L105.433 30.9536L109.093 20.6036L101.551 17.9364ZM97.8897 30.9501L101.55 41.3301L109.094 38.6699L105.434 28.2899L97.8897 30.9501ZM105.322 36H94.762V44H105.322V36ZM98.672 39.1563L97.442 33.4563L89.622 35.1437L90.852 40.8437L98.672 39.1563ZM93.532 30.3H92.872V38.3H93.532V30.3ZM105.705 19.27V15.27H101.705V19.27H105.705ZM122.505 19.27H126.505V15.27H122.505V19.27ZM122.505 28V32H126.505V28H122.505ZM116.025 28V24H112.025V28H116.025ZM116.025 29.2H112.025V33.2H116.025V29.2ZM122.505 29.2H126.505V25.2H122.505V29.2ZM122.505 31.09V35.09H126.505V31.09H122.505ZM116.025 31.09V27.09H112.025V31.09H116.025ZM116.025 32.29H112.025V36.29H116.025V32.29ZM122.775 32.29H126.775V28.29H122.775V32.29ZM122.775 40V44H126.775V40H122.775ZM105.705 40H101.705V44H105.705V40ZM105.705 23.27H122.505V15.27H105.705V23.27ZM118.505 19.27V28H126.505V19.27H118.505ZM122.505 24H116.025V32H122.505V24ZM112.025 28V29.2H120.025V28H112.025ZM116.025 33.2H122.505V25.2H116.025V33.2ZM118.505 29.2V31.09H126.505V29.2H118.505ZM122.505 27.09H116.025V35.09H122.505V27.09ZM112.025 31.09V32.29H120.025V31.09H112.025ZM116.025 36.29H122.775V28.29H116.025V36.29ZM118.775 32.29V40H126.775V32.29H118.775ZM122.775 36H105.705V44H122.775V36ZM109.705 40V19.27H101.705V40H109.705ZM133.904 33.94V29.94H129.904V33.94H133.904ZM133.904 40V44H137.904V40H133.904ZM123.584 40H119.584V44H123.584V40ZM123.584 19.27V15.27H119.584V19.27H123.584ZM142.364 21.04L140.065 24.3133L140.078 24.3225L140.091 24.3316L142.364 21.04ZM142.754 31.93L140.391 28.7029L137.532 30.7963L139.265 33.8864L142.754 31.93ZM145.484 40V44H150.322L149.413 39.2482L145.484 40ZM135.614 40L131.627 40.3158L131.918 44H135.614V40ZM134.774 34.66L138.646 33.6544L138.631 33.597L138.614 33.54L134.774 34.66ZM134.564 33.94L138.404 32.82L137.564 29.94H134.564V33.94ZM133.904 31.51H129.904V35.51H133.904V31.51ZM135.374 31.27L138.202 34.0984L138.202 34.0984L135.374 31.27ZM135.374 28.24L132.546 31.0684L132.64 31.1626L132.74 31.2503L135.374 28.24ZM133.904 28V24H129.904V28H133.904ZM129.904 33.94V40H137.904V33.94H129.904ZM133.904 36H123.584V44H133.904V36ZM127.584 40V19.27H119.584V40H127.584ZM123.584 23.27H134.474V15.27H123.584V23.27ZM134.474 23.27C137.773 23.27 139.396 23.8436 140.065 24.3133L144.663 17.7667C141.972 15.8764 138.335 15.27 134.474 15.27V23.27ZM140.091 24.3316C140.286 24.466 140.884 24.9525 140.884 27.1H148.884C148.884 23.4875 147.802 19.934 144.637 17.7484L140.091 24.3316ZM140.884 27.1C140.884 28.3448 140.535 28.5968 140.391 28.7029L145.118 35.1571C147.813 33.1832 148.884 30.2152 148.884 27.1H140.884ZM139.265 33.8864C140.196 35.547 140.99 37.7985 141.555 40.7518L149.413 39.2482C148.738 35.7215 147.712 32.593 146.243 29.9736L139.265 33.8864ZM145.484 36H135.614V44H145.484V36ZM139.602 39.6842C139.428 37.491 139.118 35.4719 138.646 33.6544L130.903 35.6656C131.23 36.9281 131.48 38.469 131.627 40.3158L139.602 39.6842ZM138.614 33.54L138.404 32.82L130.724 35.06L130.934 35.78L138.614 33.54ZM134.564 29.94H133.904V37.94H134.564V29.94ZM133.904 35.51H134.774V27.51H133.904V35.51ZM134.774 35.51C136.004 35.51 137.243 35.0576 138.202 34.0984L132.546 28.4416C132.829 28.1582 133.19 27.9074 133.618 27.7361C134.042 27.5667 134.443 27.51 134.774 27.51V35.51ZM138.202 34.0984C139.226 33.0751 139.614 31.7893 139.614 30.64H131.614C131.614 30.3586 131.658 29.9837 131.816 29.5685C131.978 29.1427 132.23 28.7575 132.546 28.4416L138.202 34.0984ZM139.614 30.64V28.84H131.614V30.64H139.614ZM139.614 28.84C139.614 27.7062 139.226 26.2958 138.008 25.2297L132.74 31.2503C132.338 30.8988 132.031 30.4589 131.84 29.9806C131.656 29.5213 131.614 29.1162 131.614 28.84H139.614ZM138.202 25.4116C137.243 24.4524 136.004 24 134.774 24V32C134.443 32 134.042 31.9433 133.618 31.7739C133.19 31.6026 132.829 31.3518 132.546 31.0684L138.202 25.4116ZM134.774 24H133.904V32H134.774V24ZM129.904 28V31.51H137.904V28H129.904Z" fill="black" mask="url(#path-1-outside-1_41_17)"/>
<mask id="path-3-outside-2_41_17" maskUnits="userSpaceOnUse" x="12" y="13" width="139" height="31" fill="black">
<rect fill="white" x="12" y="13" width="139" height="31"/>
<path d="M28.3535 27.84V29.49C28.7535 29.53 29.4535 29.55 30.4535 29.55C32.3335 29.55 34.0135 29.49 35.4935 29.37L36.2135 29.31V38.28C34.2735 38.96 31.5135 39.3 27.9335 39.3C24.3735 39.3 21.6435 38.39 19.7435 36.57C17.8635 34.75 16.9235 32.05 16.9235 28.47C16.9235 24.87 17.8535 22.22 19.7135 20.52C21.5735 18.82 24.3435 17.97 28.0235 17.97C29.5635 17.97 31.0135 18.06 32.3735 18.24C33.7535 18.42 34.7335 18.6 35.3135 18.78L36.2135 19.05V28.29C34.4735 27.99 31.8535 27.84 28.3535 27.84ZM37.0587 18.27H47.3787V31.29H50.4387V39H37.0587V18.27ZM51.2466 39V18.27H61.5666V39H51.2466ZM73.8469 27.84V29.49C74.2469 29.53 74.9469 29.55 75.9469 29.55C77.8269 29.55 79.5069 29.49 80.9869 29.37L81.7069 29.31V38.28C79.7669 38.96 77.0069 39.3 73.4269 39.3C69.8669 39.3 67.1369 38.39 65.2369 36.57C63.3569 34.75 62.4169 32.05 62.4169 28.47C62.4169 24.87 63.3469 22.22 65.2069 20.52C67.0669 18.82 69.8369 17.97 73.5169 17.97C75.0569 17.97 76.5069 18.06 77.8669 18.24C79.2469 18.42 80.2269 18.6 80.8069 18.78L81.7069 19.05V28.29C79.9669 27.99 77.3469 27.84 73.8469 27.84ZM92.872 33.3V39H82.552V18.27H92.872V27.63H93.532L94.822 18.27H105.322L101.662 28.62L105.322 39H94.762L93.532 33.3H92.872ZM105.705 18.27H122.505V27H116.025V28.2H122.505V30.09H116.025V31.29H122.775V39H105.705V18.27ZM133.904 32.94V39H123.584V18.27H134.474C138.054 18.27 140.684 18.86 142.364 20.04C144.044 21.2 144.884 23.22 144.884 26.1C144.884 28.28 144.174 29.89 142.754 30.93C143.954 33.07 144.864 35.76 145.484 39H135.614C135.454 36.98 135.174 35.2 134.774 33.66L134.564 32.94H133.904ZM133.904 30.51H134.774C135.014 30.51 135.214 30.43 135.374 30.27C135.534 30.11 135.614 29.9 135.614 29.64V27.84C135.614 27.58 135.534 27.38 135.374 27.24C135.214 27.08 135.014 27 134.774 27H133.904V30.51Z"/>
</mask>
<path d="M28.3535 27.84V29.49C28.7535 29.53 29.4535 29.55 30.4535 29.55C32.3335 29.55 34.0135 29.49 35.4935 29.37L36.2135 29.31V38.28C34.2735 38.96 31.5135 39.3 27.9335 39.3C24.3735 39.3 21.6435 38.39 19.7435 36.57C17.8635 34.75 16.9235 32.05 16.9235 28.47C16.9235 24.87 17.8535 22.22 19.7135 20.52C21.5735 18.82 24.3435 17.97 28.0235 17.97C29.5635 17.97 31.0135 18.06 32.3735 18.24C33.7535 18.42 34.7335 18.6 35.3135 18.78L36.2135 19.05V28.29C34.4735 27.99 31.8535 27.84 28.3535 27.84ZM37.0587 18.27H47.3787V31.29H50.4387V39H37.0587V18.27ZM51.2466 39V18.27H61.5666V39H51.2466ZM73.8469 27.84V29.49C74.2469 29.53 74.9469 29.55 75.9469 29.55C77.8269 29.55 79.5069 29.49 80.9869 29.37L81.7069 29.31V38.28C79.7669 38.96 77.0069 39.3 73.4269 39.3C69.8669 39.3 67.1369 38.39 65.2369 36.57C63.3569 34.75 62.4169 32.05 62.4169 28.47C62.4169 24.87 63.3469 22.22 65.2069 20.52C67.0669 18.82 69.8369 17.97 73.5169 17.97C75.0569 17.97 76.5069 18.06 77.8669 18.24C79.2469 18.42 80.2269 18.6 80.8069 18.78L81.7069 19.05V28.29C79.9669 27.99 77.3469 27.84 73.8469 27.84ZM92.872 33.3V39H82.552V18.27H92.872V27.63H93.532L94.822 18.27H105.322L101.662 28.62L105.322 39H94.762L93.532 33.3H92.872ZM105.705 18.27H122.505V27H116.025V28.2H122.505V30.09H116.025V31.29H122.775V39H105.705V18.27ZM133.904 32.94V39H123.584V18.27H134.474C138.054 18.27 140.684 18.86 142.364 20.04C144.044 21.2 144.884 23.22 144.884 26.1C144.884 28.28 144.174 29.89 142.754 30.93C143.954 33.07 144.864 35.76 145.484 39H135.614C135.454 36.98 135.174 35.2 134.774 33.66L134.564 32.94H133.904ZM133.904 30.51H134.774C135.014 30.51 135.214 30.43 135.374 30.27C135.534 30.11 135.614 29.9 135.614 29.64V27.84C135.614 27.58 135.534 27.38 135.374 27.24C135.214 27.08 135.014 27 134.774 27H133.904V30.51Z" fill="#F11919"/>
<path d="M28.3535 27.84V23.84H24.3535V27.84H28.3535ZM28.3535 29.49H24.3535V33.11L27.9555 33.4701L28.3535 29.49ZM35.4935 29.37L35.8168 33.3569L35.8257 33.3562L35.4935 29.37ZM36.2135 29.31H40.2135V24.9628L35.8813 25.3238L36.2135 29.31ZM36.2135 38.28L37.5366 42.0548L40.2135 41.1165V38.28H36.2135ZM19.7435 36.57L16.9613 39.4439L16.9689 39.4513L16.9766 39.4586L19.7435 36.57ZM19.7135 20.52L17.0149 17.5674L17.0149 17.5674L19.7135 20.52ZM32.3735 18.24L31.8487 22.2054L31.8562 22.2064L32.3735 18.24ZM35.3135 18.78L34.1279 22.6003L34.146 22.6059L34.1641 22.6113L35.3135 18.78ZM36.2135 19.05H40.2135V16.0739L37.3629 15.2187L36.2135 19.05ZM36.2135 28.29L35.5339 32.2318L40.2135 33.0387V28.29H36.2135ZM24.3535 27.84V29.49H32.3535V27.84H24.3535ZM27.9555 33.4701C28.5767 33.5323 29.4584 33.55 30.4535 33.55V25.55C29.4486 25.55 28.9304 25.5277 28.7515 25.5099L27.9555 33.4701ZM30.4535 33.55C32.4145 33.55 34.2054 33.4876 35.8168 33.3569L35.1703 25.3831C33.8216 25.4924 32.2525 25.55 30.4535 25.55V33.55ZM35.8257 33.3562L36.5457 33.2962L35.8813 25.3238L35.1613 25.3838L35.8257 33.3562ZM32.2135 29.31V38.28H40.2135V29.31H32.2135ZM34.8904 34.5052C33.5786 34.965 31.3453 35.3 27.9335 35.3V43.3C31.6817 43.3 34.9684 42.955 37.5366 42.0548L34.8904 34.5052ZM27.9335 35.3C25.0329 35.3 23.4349 34.5669 22.5105 33.6814L16.9766 39.4586C19.8521 42.2131 23.7141 43.3 27.9335 43.3V35.3ZM22.5257 33.6961C21.6764 32.8739 20.9235 31.377 20.9235 28.47H12.9235C12.9235 32.723 14.0506 36.6261 16.9613 39.4439L22.5257 33.6961ZM20.9235 28.47C20.9235 25.5014 21.6855 24.1366 22.4121 23.4726L17.0149 17.5674C14.0215 20.3033 12.9235 24.2386 12.9235 28.47H20.9235ZM22.4121 23.4726C23.2576 22.6998 24.8891 21.97 28.0235 21.97V13.97C23.7979 13.97 19.8895 14.9402 17.0149 17.5674L22.4121 23.4726ZM28.0235 21.97C29.4089 21.97 30.6823 22.051 31.8487 22.2054L32.8983 14.2746C31.3448 14.069 29.7181 13.97 28.0235 13.97V21.97ZM31.8562 22.2064C33.2233 22.3847 33.9044 22.5309 34.1279 22.6003L36.4991 14.9597C35.5626 14.6691 34.2837 14.4553 32.8909 14.2736L31.8562 22.2064ZM34.1641 22.6113L35.0641 22.8813L37.3629 15.2187L36.4629 14.9487L34.1641 22.6113ZM32.2135 19.05V28.29H40.2135V19.05H32.2135ZM36.8931 24.3482C34.8045 23.9881 31.9057 23.84 28.3535 23.84V31.84C31.8014 31.84 34.1425 31.9919 35.5339 32.2318L36.8931 24.3482ZM37.0587 18.27V14.27H33.0587V18.27H37.0587ZM47.3787 18.27H51.3787V14.27H47.3787V18.27ZM47.3787 31.29H43.3787V35.29H47.3787V31.29ZM50.4387 31.29H54.4387V27.29H50.4387V31.29ZM50.4387 39V43H54.4387V39H50.4387ZM37.0587 39H33.0587V43H37.0587V39ZM37.0587 22.27H47.3787V14.27H37.0587V22.27ZM43.3787 18.27V31.29H51.3787V18.27H43.3787ZM47.3787 35.29H50.4387V27.29H47.3787V35.29ZM46.4387 31.29V39H54.4387V31.29H46.4387ZM50.4387 35H37.0587V43H50.4387V35ZM41.0587 39V18.27H33.0587V39H41.0587ZM51.2466 39H47.2466V43H51.2466V39ZM51.2466 18.27V14.27H47.2466V18.27H51.2466ZM61.5666 18.27H65.5666V14.27H61.5666V18.27ZM61.5666 39V43H65.5666V39H61.5666ZM55.2466 39V18.27H47.2466V39H55.2466ZM51.2466 22.27H61.5666V14.27H51.2466V22.27ZM57.5666 18.27V39H65.5666V18.27H57.5666ZM61.5666 35H51.2466V43H61.5666V35ZM73.8469 27.84V23.84H69.8469V27.84H73.8469ZM73.8469 29.49H69.8469V33.11L73.4489 33.4701L73.8469 29.49ZM80.9869 29.37L81.3101 33.3569L81.3191 33.3562L80.9869 29.37ZM81.7069 29.31H85.7069V24.9628L81.3747 25.3238L81.7069 29.31ZM81.7069 38.28L83.03 42.0548L85.7069 41.1165V38.28H81.7069ZM65.2369 36.57L62.4547 39.4439L62.4623 39.4513L62.4699 39.4586L65.2369 36.57ZM65.2069 20.52L62.5083 17.5674L62.5083 17.5674L65.2069 20.52ZM77.8669 18.24L77.342 22.2054L77.3495 22.2064L77.8669 18.24ZM80.8069 18.78L79.6213 22.6003L79.6394 22.6059L79.6575 22.6113L80.8069 18.78ZM81.7069 19.05H85.7069V16.0739L82.8563 15.2187L81.7069 19.05ZM81.7069 28.29L81.0272 32.2318L85.7069 33.0387V28.29H81.7069ZM69.8469 27.84V29.49H77.8469V27.84H69.8469ZM73.4489 33.4701C74.07 33.5323 74.9517 33.55 75.9469 33.55V25.55C74.942 25.55 74.4237 25.5277 74.2449 25.5099L73.4489 33.4701ZM75.9469 33.55C77.9079 33.55 79.6988 33.4876 81.3101 33.3569L80.6636 25.3831C79.3149 25.4924 77.7458 25.55 75.9469 25.55V33.55ZM81.3191 33.3562L82.0391 33.2962L81.3747 25.3238L80.6547 25.3838L81.3191 33.3562ZM77.7069 29.31V38.28H85.7069V29.31H77.7069ZM80.3837 34.5052C79.072 34.965 76.8387 35.3 73.4269 35.3V43.3C77.1751 43.3 80.4618 42.955 83.03 42.0548L80.3837 34.5052ZM73.4269 35.3C70.5263 35.3 68.9282 34.5669 68.0038 33.6814L62.4699 39.4586C65.3455 42.2131 69.2075 43.3 73.4269 43.3V35.3ZM68.0191 33.6961C67.1698 32.8739 66.4169 31.377 66.4169 28.47H58.4169C58.4169 32.723 59.544 36.6261 62.4547 39.4439L68.0191 33.6961ZM66.4169 28.47C66.4169 25.5014 67.1789 24.1366 67.9055 23.4726L62.5083 17.5674C59.5149 20.3033 58.4169 24.2386 58.4169 28.47H66.4169ZM67.9055 23.4726C68.7509 22.6998 70.3825 21.97 73.5169 21.97V13.97C69.2913 13.97 65.3828 14.9402 62.5083 17.5674L67.9055 23.4726ZM73.5169 21.97C74.9023 21.97 76.1756 22.051 77.342 22.2054L78.3917 14.2746C76.8381 14.069 75.2115 13.97 73.5169 13.97V21.97ZM77.3495 22.2064C78.7167 22.3847 79.3978 22.5309 79.6213 22.6003L81.9925 14.9597C81.056 14.6691 79.7771 14.4553 78.3842 14.2736L77.3495 22.2064ZM79.6575 22.6113L80.5575 22.8813L82.8563 15.2187L81.9563 14.9487L79.6575 22.6113ZM77.7069 19.05V28.29H85.7069V19.05H77.7069ZM82.3865 24.3482C80.2979 23.9881 77.399 23.84 73.8469 23.84V31.84C77.2947 31.84 79.6359 31.9919 81.0272 32.2318L82.3865 24.3482ZM92.872 33.3V29.3H88.872V33.3H92.872ZM92.872 39V43H96.872V39H92.872ZM82.552 39H78.552V43H82.552V39ZM82.552 18.27V14.27H78.552V18.27H82.552ZM92.872 18.27H96.872V14.27H92.872V18.27ZM92.872 27.63H88.872V31.63H92.872V27.63ZM93.532 27.63V31.63H97.0186L97.4946 28.1761L93.532 27.63ZM94.822 18.27V14.27H91.3355L90.8595 17.7239L94.822 18.27ZM105.322 18.27L109.093 19.6036L110.979 14.27H105.322V18.27ZM101.662 28.62L97.8909 27.2864L97.42 28.6181L97.8897 29.9501L101.662 28.62ZM105.322 39V43H110.974L109.094 37.6699L105.322 39ZM94.762 39L90.852 39.8437L91.5331 43H94.762V39ZM93.532 33.3L97.442 32.4563L96.7609 29.3H93.532V33.3ZM88.872 33.3V39H96.872V33.3H88.872ZM92.872 35H82.552V43H92.872V35ZM86.552 39V18.27H78.552V39H86.552ZM82.552 22.27H92.872V14.27H82.552V22.27ZM88.872 18.27V27.63H96.872V18.27H88.872ZM92.872 31.63H93.532V23.63H92.872V31.63ZM97.4946 28.1761L98.7846 18.8161L90.8595 17.7239L89.5695 27.0839L97.4946 28.1761ZM94.822 22.27H105.322V14.27H94.822V22.27ZM101.551 16.9364L97.8909 27.2864L105.433 29.9536L109.093 19.6036L101.551 16.9364ZM97.8897 29.9501L101.55 40.3301L109.094 37.6699L105.434 27.2899L97.8897 29.9501ZM105.322 35H94.762V43H105.322V35ZM98.672 38.1563L97.442 32.4563L89.622 34.1437L90.852 39.8437L98.672 38.1563ZM93.532 29.3H92.872V37.3H93.532V29.3ZM105.705 18.27V14.27H101.705V18.27H105.705ZM122.505 18.27H126.505V14.27H122.505V18.27ZM122.505 27V31H126.505V27H122.505ZM116.025 27V23H112.025V27H116.025ZM116.025 28.2H112.025V32.2H116.025V28.2ZM122.505 28.2H126.505V24.2H122.505V28.2ZM122.505 30.09V34.09H126.505V30.09H122.505ZM116.025 30.09V26.09H112.025V30.09H116.025ZM116.025 31.29H112.025V35.29H116.025V31.29ZM122.775 31.29H126.775V27.29H122.775V31.29ZM122.775 39V43H126.775V39H122.775ZM105.705 39H101.705V43H105.705V39ZM105.705 22.27H122.505V14.27H105.705V22.27ZM118.505 18.27V27H126.505V18.27H118.505ZM122.505 23H116.025V31H122.505V23ZM112.025 27V28.2H120.025V27H112.025ZM116.025 32.2H122.505V24.2H116.025V32.2ZM118.505 28.2V30.09H126.505V28.2H118.505ZM122.505 26.09H116.025V34.09H122.505V26.09ZM112.025 30.09V31.29H120.025V30.09H112.025ZM116.025 35.29H122.775V27.29H116.025V35.29ZM118.775 31.29V39H126.775V31.29H118.775ZM122.775 35H105.705V43H122.775V35ZM109.705 39V18.27H101.705V39H109.705ZM133.904 32.94V28.94H129.904V32.94H133.904ZM133.904 39V43H137.904V39H133.904ZM123.584 39H119.584V43H123.584V39ZM123.584 18.27V14.27H119.584V18.27H123.584ZM142.364 20.04L140.065 23.3133L140.078 23.3225L140.091 23.3316L142.364 20.04ZM142.754 30.93L140.391 27.7029L137.532 29.7963L139.265 32.8864L142.754 30.93ZM145.484 39V43H150.322L149.413 38.2482L145.484 39ZM135.614 39L131.627 39.3158L131.918 43H135.614V39ZM134.774 33.66L138.646 32.6544L138.631 32.597L138.614 32.54L134.774 33.66ZM134.564 32.94L138.404 31.82L137.564 28.94H134.564V32.94ZM133.904 30.51H129.904V34.51H133.904V30.51ZM135.374 30.27L138.202 33.0984L138.202 33.0984L135.374 30.27ZM135.374 27.24L132.546 30.0684L132.64 30.1626L132.74 30.2503L135.374 27.24ZM133.904 27V23H129.904V27H133.904ZM129.904 32.94V39H137.904V32.94H129.904ZM133.904 35H123.584V43H133.904V35ZM127.584 39V18.27H119.584V39H127.584ZM123.584 22.27H134.474V14.27H123.584V22.27ZM134.474 22.27C137.773 22.27 139.396 22.8436 140.065 23.3133L144.663 16.7667C141.972 14.8764 138.335 14.27 134.474 14.27V22.27ZM140.091 23.3316C140.286 23.466 140.884 23.9525 140.884 26.1H148.884C148.884 22.4875 147.802 18.934 144.637 16.7484L140.091 23.3316ZM140.884 26.1C140.884 27.3448 140.535 27.5968 140.391 27.7029L145.118 34.1571C147.813 32.1832 148.884 29.2152 148.884 26.1H140.884ZM139.265 32.8864C140.196 34.547 140.99 36.7985 141.555 39.7518L149.413 38.2482C148.738 34.7215 147.712 31.593 146.243 28.9736L139.265 32.8864ZM145.484 35H135.614V43H145.484V35ZM139.602 38.6842C139.428 36.491 139.118 34.4719 138.646 32.6544L130.903 34.6656C131.23 35.9281 131.48 37.469 131.627 39.3158L139.602 38.6842ZM138.614 32.54L138.404 31.82L130.724 34.06L130.934 34.78L138.614 32.54ZM134.564 28.94H133.904V36.94H134.564V28.94ZM133.904 34.51H134.774V26.51H133.904V34.51ZM134.774 34.51C136.004 34.51 137.243 34.0576 138.202 33.0984L132.546 27.4416C132.829 27.1582 133.19 26.9074 133.618 26.7361C134.042 26.5667 134.443 26.51 134.774 26.51V34.51ZM138.202 33.0984C139.226 32.0751 139.614 30.7893 139.614 29.64H131.614C131.614 29.3586 131.658 28.9837 131.816 28.5685C131.978 28.1427 132.23 27.7575 132.546 27.4416L138.202 33.0984ZM139.614 29.64V27.84H131.614V29.64H139.614ZM139.614 27.84C139.614 26.7062 139.226 25.2958 138.008 24.2297L132.74 30.2503C132.338 29.8988 132.031 29.4589 131.84 28.9806C131.656 28.5213 131.614 28.1162 131.614 27.84H139.614ZM138.202 24.4116C137.243 23.4524 136.004 23 134.774 23V31C134.443 31 134.042 30.9433 133.618 30.7739C133.19 30.6026 132.829 30.3518 132.546 30.0684L138.202 24.4116ZM134.774 23H133.904V31H134.774V23ZM129.904 27V30.51H137.904V27H129.904Z" fill="black" mask="url(#path-3-outside-2_41_17)"/>
<mask id="path-5-outside-3_41_17" maskUnits="userSpaceOnUse" x="12" y="12" width="139" height="31" fill="black">
<rect fill="white" x="12" y="12" width="139" height="31"/>
<path d="M28.3535 26.84V28.49C28.7535 28.53 29.4535 28.55 30.4535 28.55C32.3335 28.55 34.0135 28.49 35.4935 28.37L36.2135 28.31V37.28C34.2735 37.96 31.5135 38.3 27.9335 38.3C24.3735 38.3 21.6435 37.39 19.7435 35.57C17.8635 33.75 16.9235 31.05 16.9235 27.47C16.9235 23.87 17.8535 21.22 19.7135 19.52C21.5735 17.82 24.3435 16.97 28.0235 16.97C29.5635 16.97 31.0135 17.06 32.3735 17.24C33.7535 17.42 34.7335 17.6 35.3135 17.78L36.2135 18.05V27.29C34.4735 26.99 31.8535 26.84 28.3535 26.84ZM37.0587 17.27H47.3787V30.29H50.4387V38H37.0587V17.27ZM51.2466 38V17.27H61.5666V38H51.2466ZM73.8469 26.84V28.49C74.2469 28.53 74.9469 28.55 75.9469 28.55C77.8269 28.55 79.5069 28.49 80.9869 28.37L81.7069 28.31V37.28C79.7669 37.96 77.0069 38.3 73.4269 38.3C69.8669 38.3 67.1369 37.39 65.2369 35.57C63.3569 33.75 62.4169 31.05 62.4169 27.47C62.4169 23.87 63.3469 21.22 65.2069 19.52C67.0669 17.82 69.8369 16.97 73.5169 16.97C75.0569 16.97 76.5069 17.06 77.8669 17.24C79.2469 17.42 80.2269 17.6 80.8069 17.78L81.7069 18.05V27.29C79.9669 26.99 77.3469 26.84 73.8469 26.84ZM92.872 32.3V38H82.552V17.27H92.872V26.63H93.532L94.822 17.27H105.322L101.662 27.62L105.322 38H94.762L93.532 32.3H92.872ZM105.705 17.27H122.505V26H116.025V27.2H122.505V29.09H116.025V30.29H122.775V38H105.705V17.27ZM133.904 31.94V38H123.584V17.27H134.474C138.054 17.27 140.684 17.86 142.364 19.04C144.044 20.2 144.884 22.22 144.884 25.1C144.884 27.28 144.174 28.89 142.754 29.93C143.954 32.07 144.864 34.76 145.484 38H135.614C135.454 35.98 135.174 34.2 134.774 32.66L134.564 31.94H133.904ZM133.904 29.51H134.774C135.014 29.51 135.214 29.43 135.374 29.27C135.534 29.11 135.614 28.9 135.614 28.64V26.84C135.614 26.58 135.534 26.38 135.374 26.24C135.214 26.08 135.014 26 134.774 26H133.904V29.51Z"/>
</mask>
<path d="M28.3535 26.84V28.49C28.7535 28.53 29.4535 28.55 30.4535 28.55C32.3335 28.55 34.0135 28.49 35.4935 28.37L36.2135 28.31V37.28C34.2735 37.96 31.5135 38.3 27.9335 38.3C24.3735 38.3 21.6435 37.39 19.7435 35.57C17.8635 33.75 16.9235 31.05 16.9235 27.47C16.9235 23.87 17.8535 21.22 19.7135 19.52C21.5735 17.82 24.3435 16.97 28.0235 16.97C29.5635 16.97 31.0135 17.06 32.3735 17.24C33.7535 17.42 34.7335 17.6 35.3135 17.78L36.2135 18.05V27.29C34.4735 26.99 31.8535 26.84 28.3535 26.84ZM37.0587 17.27H47.3787V30.29H50.4387V38H37.0587V17.27ZM51.2466 38V17.27H61.5666V38H51.2466ZM73.8469 26.84V28.49C74.2469 28.53 74.9469 28.55 75.9469 28.55C77.8269 28.55 79.5069 28.49 80.9869 28.37L81.7069 28.31V37.28C79.7669 37.96 77.0069 38.3 73.4269 38.3C69.8669 38.3 67.1369 37.39 65.2369 35.57C63.3569 33.75 62.4169 31.05 62.4169 27.47C62.4169 23.87 63.3469 21.22 65.2069 19.52C67.0669 17.82 69.8369 16.97 73.5169 16.97C75.0569 16.97 76.5069 17.06 77.8669 17.24C79.2469 17.42 80.2269 17.6 80.8069 17.78L81.7069 18.05V27.29C79.9669 26.99 77.3469 26.84 73.8469 26.84ZM92.872 32.3V38H82.552V17.27H92.872V26.63H93.532L94.822 17.27H105.322L101.662 27.62L105.322 38H94.762L93.532 32.3H92.872ZM105.705 17.27H122.505V26H116.025V27.2H122.505V29.09H116.025V30.29H122.775V38H105.705V17.27ZM133.904 31.94V38H123.584V17.27H134.474C138.054 17.27 140.684 17.86 142.364 19.04C144.044 20.2 144.884 22.22 144.884 25.1C144.884 27.28 144.174 28.89 142.754 29.93C143.954 32.07 144.864 34.76 145.484 38H135.614C135.454 35.98 135.174 34.2 134.774 32.66L134.564 31.94H133.904ZM133.904 29.51H134.774C135.014 29.51 135.214 29.43 135.374 29.27C135.534 29.11 135.614 28.9 135.614 28.64V26.84C135.614 26.58 135.534 26.38 135.374 26.24C135.214 26.08 135.014 26 134.774 26H133.904V29.51Z" fill="#F11919"/>
<path d="M28.3535 26.84V22.84H24.3535V26.84H28.3535ZM28.3535 28.49H24.3535V32.11L27.9555 32.4701L28.3535 28.49ZM35.4935 28.37L35.8168 32.3569L35.8257 32.3562L35.4935 28.37ZM36.2135 28.31H40.2135V23.9628L35.8813 24.3238L36.2135 28.31ZM36.2135 37.28L37.5366 41.0548L40.2135 40.1165V37.28H36.2135ZM19.7435 35.57L16.9613 38.4439L16.9689 38.4513L16.9766 38.4586L19.7435 35.57ZM19.7135 19.52L17.0149 16.5674L17.0149 16.5674L19.7135 19.52ZM32.3735 17.24L31.8487 21.2054L31.8562 21.2064L32.3735 17.24ZM35.3135 17.78L34.1279 21.6003L34.146 21.6059L34.1641 21.6113L35.3135 17.78ZM36.2135 18.05H40.2135V15.0739L37.3629 14.2187L36.2135 18.05ZM36.2135 27.29L35.5339 31.2318L40.2135 32.0387V27.29H36.2135ZM24.3535 26.84V28.49H32.3535V26.84H24.3535ZM27.9555 32.4701C28.5767 32.5323 29.4584 32.55 30.4535 32.55V24.55C29.4486 24.55 28.9304 24.5277 28.7515 24.5099L27.9555 32.4701ZM30.4535 32.55C32.4145 32.55 34.2054 32.4876 35.8168 32.3569L35.1703 24.3831C33.8216 24.4924 32.2525 24.55 30.4535 24.55V32.55ZM35.8257 32.3562L36.5457 32.2962L35.8813 24.3238L35.1613 24.3838L35.8257 32.3562ZM32.2135 28.31V37.28H40.2135V28.31H32.2135ZM34.8904 33.5052C33.5786 33.965 31.3453 34.3 27.9335 34.3V42.3C31.6817 42.3 34.9684 41.955 37.5366 41.0548L34.8904 33.5052ZM27.9335 34.3C25.0329 34.3 23.4349 33.5669 22.5105 32.6814L16.9766 38.4586C19.8521 41.2131 23.7141 42.3 27.9335 42.3V34.3ZM22.5257 32.6961C21.6764 31.8739 20.9235 30.377 20.9235 27.47H12.9235C12.9235 31.723 14.0506 35.6261 16.9613 38.4439L22.5257 32.6961ZM20.9235 27.47C20.9235 24.5014 21.6855 23.1366 22.4121 22.4726L17.0149 16.5674C14.0215 19.3033 12.9235 23.2386 12.9235 27.47H20.9235ZM22.4121 22.4726C23.2576 21.6998 24.8891 20.97 28.0235 20.97V12.97C23.7979 12.97 19.8895 13.9402 17.0149 16.5674L22.4121 22.4726ZM28.0235 20.97C29.4089 20.97 30.6823 21.051 31.8487 21.2054L32.8983 13.2746C31.3448 13.069 29.7181 12.97 28.0235 12.97V20.97ZM31.8562 21.2064C33.2233 21.3847 33.9044 21.5309 34.1279 21.6003L36.4991 13.9597C35.5626 13.6691 34.2837 13.4553 32.8909 13.2736L31.8562 21.2064ZM34.1641 21.6113L35.0641 21.8813L37.3629 14.2187L36.4629 13.9487L34.1641 21.6113ZM32.2135 18.05V27.29H40.2135V18.05H32.2135ZM36.8931 23.3482C34.8045 22.9881 31.9057 22.84 28.3535 22.84V30.84C31.8014 30.84 34.1425 30.9919 35.5339 31.2318L36.8931 23.3482ZM37.0587 17.27V13.27H33.0587V17.27H37.0587ZM47.3787 17.27H51.3787V13.27H47.3787V17.27ZM47.3787 30.29H43.3787V34.29H47.3787V30.29ZM50.4387 30.29H54.4387V26.29H50.4387V30.29ZM50.4387 38V42H54.4387V38H50.4387ZM37.0587 38H33.0587V42H37.0587V38ZM37.0587 21.27H47.3787V13.27H37.0587V21.27ZM43.3787 17.27V30.29H51.3787V17.27H43.3787ZM47.3787 34.29H50.4387V26.29H47.3787V34.29ZM46.4387 30.29V38H54.4387V30.29H46.4387ZM50.4387 34H37.0587V42H50.4387V34ZM41.0587 38V17.27H33.0587V38H41.0587ZM51.2466 38H47.2466V42H51.2466V38ZM51.2466 17.27V13.27H47.2466V17.27H51.2466ZM61.5666 17.27H65.5666V13.27H61.5666V17.27ZM61.5666 38V42H65.5666V38H61.5666ZM55.2466 38V17.27H47.2466V38H55.2466ZM51.2466 21.27H61.5666V13.27H51.2466V21.27ZM57.5666 17.27V38H65.5666V17.27H57.5666ZM61.5666 34H51.2466V42H61.5666V34ZM73.8469 26.84V22.84H69.8469V26.84H73.8469ZM73.8469 28.49H69.8469V32.11L73.4489 32.4701L73.8469 28.49ZM80.9869 28.37L81.3101 32.3569L81.3191 32.3562L80.9869 28.37ZM81.7069 28.31H85.7069V23.9628L81.3747 24.3238L81.7069 28.31ZM81.7069 37.28L83.03 41.0548L85.7069 40.1165V37.28H81.7069ZM65.2369 35.57L62.4547 38.4439L62.4623 38.4513L62.4699 38.4586L65.2369 35.57ZM65.2069 19.52L62.5083 16.5674L62.5083 16.5674L65.2069 19.52ZM77.8669 17.24L77.342 21.2054L77.3495 21.2064L77.8669 17.24ZM80.8069 17.78L79.6213 21.6003L79.6394 21.6059L79.6575 21.6113L80.8069 17.78ZM81.7069 18.05H85.7069V15.0739L82.8563 14.2187L81.7069 18.05ZM81.7069 27.29L81.0272 31.2318L85.7069 32.0387V27.29H81.7069ZM69.8469 26.84V28.49H77.8469V26.84H69.8469ZM73.4489 32.4701C74.07 32.5323 74.9517 32.55 75.9469 32.55V24.55C74.942 24.55 74.4237 24.5277 74.2449 24.5099L73.4489 32.4701ZM75.9469 32.55C77.9079 32.55 79.6988 32.4876 81.3101 32.3569L80.6636 24.3831C79.3149 24.4924 77.7458 24.55 75.9469 24.55V32.55ZM81.3191 32.3562L82.0391 32.2962L81.3747 24.3238L80.6547 24.3838L81.3191 32.3562ZM77.7069 28.31V37.28H85.7069V28.31H77.7069ZM80.3837 33.5052C79.072 33.965 76.8387 34.3 73.4269 34.3V42.3C77.1751 42.3 80.4618 41.955 83.03 41.0548L80.3837 33.5052ZM73.4269 34.3C70.5263 34.3 68.9282 33.5669 68.0038 32.6814L62.4699 38.4586C65.3455 41.2131 69.2075 42.3 73.4269 42.3V34.3ZM68.0191 32.6961C67.1698 31.8739 66.4169 30.377 66.4169 27.47H58.4169C58.4169 31.723 59.544 35.6261 62.4547 38.4439L68.0191 32.6961ZM66.4169 27.47C66.4169 24.5014 67.1789 23.1366 67.9055 22.4726L62.5083 16.5674C59.5149 19.3033 58.4169 23.2386 58.4169 27.47H66.4169ZM67.9055 22.4726C68.7509 21.6998 70.3825 20.97 73.5169 20.97V12.97C69.2913 12.97 65.3828 13.9402 62.5083 16.5674L67.9055 22.4726ZM73.5169 20.97C74.9023 20.97 76.1756 21.051 77.342 21.2054L78.3917 13.2746C76.8381 13.069 75.2115 12.97 73.5169 12.97V20.97ZM77.3495 21.2064C78.7167 21.3847 79.3978 21.5309 79.6213 21.6003L81.9925 13.9597C81.056 13.6691 79.7771 13.4553 78.3842 13.2736L77.3495 21.2064ZM79.6575 21.6113L80.5575 21.8813L82.8563 14.2187L81.9563 13.9487L79.6575 21.6113ZM77.7069 18.05V27.29H85.7069V18.05H77.7069ZM82.3865 23.3482C80.2979 22.9881 77.399 22.84 73.8469 22.84V30.84C77.2947 30.84 79.6359 30.9919 81.0272 31.2318L82.3865 23.3482ZM92.872 32.3V28.3H88.872V32.3H92.872ZM92.872 38V42H96.872V38H92.872ZM82.552 38H78.552V42H82.552V38ZM82.552 17.27V13.27H78.552V17.27H82.552ZM92.872 17.27H96.872V13.27H92.872V17.27ZM92.872 26.63H88.872V30.63H92.872V26.63ZM93.532 26.63V30.63H97.0186L97.4946 27.1761L93.532 26.63ZM94.822 17.27V13.27H91.3355L90.8595 16.7239L94.822 17.27ZM105.322 17.27L109.093 18.6036L110.979 13.27H105.322V17.27ZM101.662 27.62L97.8909 26.2864L97.42 27.6181L97.8897 28.9501L101.662 27.62ZM105.322 38V42H110.974L109.094 36.6699L105.322 38ZM94.762 38L90.852 38.8437L91.5331 42H94.762V38ZM93.532 32.3L97.442 31.4563L96.7609 28.3H93.532V32.3ZM88.872 32.3V38H96.872V32.3H88.872ZM92.872 34H82.552V42H92.872V34ZM86.552 38V17.27H78.552V38H86.552ZM82.552 21.27H92.872V13.27H82.552V21.27ZM88.872 17.27V26.63H96.872V17.27H88.872ZM92.872 30.63H93.532V22.63H92.872V30.63ZM97.4946 27.1761L98.7846 17.8161L90.8595 16.7239L89.5695 26.0839L97.4946 27.1761ZM94.822 21.27H105.322V13.27H94.822V21.27ZM101.551 15.9364L97.8909 26.2864L105.433 28.9536L109.093 18.6036L101.551 15.9364ZM97.8897 28.9501L101.55 39.3301L109.094 36.6699L105.434 26.2899L97.8897 28.9501ZM105.322 34H94.762V42H105.322V34ZM98.672 37.1563L97.442 31.4563L89.622 33.1437L90.852 38.8437L98.672 37.1563ZM93.532 28.3H92.872V36.3H93.532V28.3ZM105.705 17.27V13.27H101.705V17.27H105.705ZM122.505 17.27H126.505V13.27H122.505V17.27ZM122.505 26V30H126.505V26H122.505ZM116.025 26V22H112.025V26H116.025ZM116.025 27.2H112.025V31.2H116.025V27.2ZM122.505 27.2H126.505V23.2H122.505V27.2ZM122.505 29.09V33.09H126.505V29.09H122.505ZM116.025 29.09V25.09H112.025V29.09H116.025ZM116.025 30.29H112.025V34.29H116.025V30.29ZM122.775 30.29H126.775V26.29H122.775V30.29ZM122.775 38V42H126.775V38H122.775ZM105.705 38H101.705V42H105.705V38ZM105.705 21.27H122.505V13.27H105.705V21.27ZM118.505 17.27V26H126.505V17.27H118.505ZM122.505 22H116.025V30H122.505V22ZM112.025 26V27.2H120.025V26H112.025ZM116.025 31.2H122.505V23.2H116.025V31.2ZM118.505 27.2V29.09H126.505V27.2H118.505ZM122.505 25.09H116.025V33.09H122.505V25.09ZM112.025 29.09V30.29H120.025V29.09H112.025ZM116.025 34.29H122.775V26.29H116.025V34.29ZM118.775 30.29V38H126.775V30.29H118.775ZM122.775 34H105.705V42H122.775V34ZM109.705 38V17.27H101.705V38H109.705ZM133.904 31.94V27.94H129.904V31.94H133.904ZM133.904 38V42H137.904V38H133.904ZM123.584 38H119.584V42H123.584V38ZM123.584 17.27V13.27H119.584V17.27H123.584ZM142.364 19.04L140.065 22.3133L140.078 22.3225L140.091 22.3316L142.364 19.04ZM142.754 29.93L140.391 26.7029L137.532 28.7963L139.265 31.8864L142.754 29.93ZM145.484 38V42H150.322L149.413 37.2482L145.484 38ZM135.614 38L131.627 38.3158L131.918 42H135.614V38ZM134.774 32.66L138.646 31.6544L138.631 31.597L138.614 31.54L134.774 32.66ZM134.564 31.94L138.404 30.82L137.564 27.94H134.564V31.94ZM133.904 29.51H129.904V33.51H133.904V29.51ZM135.374 29.27L138.202 32.0984L138.202 32.0984L135.374 29.27ZM135.374 26.24L132.546 29.0684L132.64 29.1626L132.74 29.2503L135.374 26.24ZM133.904 26V22H129.904V26H133.904ZM129.904 31.94V38H137.904V31.94H129.904ZM133.904 34H123.584V42H133.904V34ZM127.584 38V17.27H119.584V38H127.584ZM123.584 21.27H134.474V13.27H123.584V21.27ZM134.474 21.27C137.773 21.27 139.396 21.8436 140.065 22.3133L144.663 15.7667C141.972 13.8764 138.335 13.27 134.474 13.27V21.27ZM140.091 22.3316C140.286 22.466 140.884 22.9525 140.884 25.1H148.884C148.884 21.4875 147.802 17.934 144.637 15.7484L140.091 22.3316ZM140.884 25.1C140.884 26.3448 140.535 26.5968 140.391 26.7029L145.118 33.1571C147.813 31.1832 148.884 28.2152 148.884 25.1H140.884ZM139.265 31.8864C140.196 33.547 140.99 35.7985 141.555 38.7518L149.413 37.2482C148.738 33.7215 147.712 30.593 146.243 27.9736L139.265 31.8864ZM145.484 34H135.614V42H145.484V34ZM139.602 37.6842C139.428 35.491 139.118 33.4719 138.646 31.6544L130.903 33.6656C131.23 34.9281 131.48 36.469 131.627 38.3158L139.602 37.6842ZM138.614 31.54L138.404 30.82L130.724 33.06L130.934 33.78L138.614 31.54ZM134.564 27.94H133.904V35.94H134.564V27.94ZM133.904 33.51H134.774V25.51H133.904V33.51ZM134.774 33.51C136.004 33.51 137.243 33.0576 138.202 32.0984L132.546 26.4416C132.829 26.1582 133.19 25.9074 133.618 25.7361C134.042 25.5667 134.443 25.51 134.774 25.51V33.51ZM138.202 32.0984C139.226 31.0751 139.614 29.7893 139.614 28.64H131.614C131.614 28.3586 131.658 27.9837 131.816 27.5685C131.978 27.1427 132.23 26.7575 132.546 26.4416L138.202 32.0984ZM139.614 28.64V26.84H131.614V28.64H139.614ZM139.614 26.84C139.614 25.7062 139.226 24.2958 138.008 23.2297L132.74 29.2503C132.338 28.8988 132.031 28.4589 131.84 27.9806C131.656 27.5213 131.614 27.1162 131.614 26.84H139.614ZM138.202 23.4116C137.243 22.4524 136.004 22 134.774 22V30C134.443 30 134.042 29.9433 133.618 29.7739C133.19 29.6026 132.829 29.3518 132.546 29.0684L138.202 23.4116ZM134.774 22H133.904V30H134.774V22ZM129.904 26V29.51H137.904V26H129.904Z" fill="black" mask="url(#path-5-outside-3_41_17)"/>
<mask id="path-7-outside-4_41_17" maskUnits="userSpaceOnUse" x="12" y="11" width="139" height="31" fill="black">
<rect fill="white" x="12" y="11" width="139" height="31"/>
<path d="M28.3535 25.84V27.49C28.7535 27.53 29.4535 27.55 30.4535 27.55C32.3335 27.55 34.0135 27.49 35.4935 27.37L36.2135 27.31V36.28C34.2735 36.96 31.5135 37.3 27.9335 37.3C24.3735 37.3 21.6435 36.39 19.7435 34.57C17.8635 32.75 16.9235 30.05 16.9235 26.47C16.9235 22.87 17.8535 20.22 19.7135 18.52C21.5735 16.82 24.3435 15.97 28.0235 15.97C29.5635 15.97 31.0135 16.06 32.3735 16.24C33.7535 16.42 34.7335 16.6 35.3135 16.78L36.2135 17.05V26.29C34.4735 25.99 31.8535 25.84 28.3535 25.84ZM37.0587 16.27H47.3787V29.29H50.4387V37H37.0587V16.27ZM51.2466 37V16.27H61.5666V37H51.2466ZM73.8469 25.84V27.49C74.2469 27.53 74.9469 27.55 75.9469 27.55C77.8269 27.55 79.5069 27.49 80.9869 27.37L81.7069 27.31V36.28C79.7669 36.96 77.0069 37.3 73.4269 37.3C69.8669 37.3 67.1369 36.39 65.2369 34.57C63.3569 32.75 62.4169 30.05 62.4169 26.47C62.4169 22.87 63.3469 20.22 65.2069 18.52C67.0669 16.82 69.8369 15.97 73.5169 15.97C75.0569 15.97 76.5069 16.06 77.8669 16.24C79.2469 16.42 80.2269 16.6 80.8069 16.78L81.7069 17.05V26.29C79.9669 25.99 77.3469 25.84 73.8469 25.84ZM92.872 31.3V37H82.552V16.27H92.872V25.63H93.532L94.822 16.27H105.322L101.662 26.62L105.322 37H94.762L93.532 31.3H92.872ZM105.705 16.27H122.505V25H116.025V26.2H122.505V28.09H116.025V29.29H122.775V37H105.705V16.27ZM133.904 30.94V37H123.584V16.27H134.474C138.054 16.27 140.684 16.86 142.364 18.04C144.044 19.2 144.884 21.22 144.884 24.1C144.884 26.28 144.174 27.89 142.754 28.93C143.954 31.07 144.864 33.76 145.484 37H135.614C135.454 34.98 135.174 33.2 134.774 31.66L134.564 30.94H133.904ZM133.904 28.51H134.774C135.014 28.51 135.214 28.43 135.374 28.27C135.534 28.11 135.614 27.9 135.614 27.64V25.84C135.614 25.58 135.534 25.38 135.374 25.24C135.214 25.08 135.014 25 134.774 25H133.904V28.51Z"/>
</mask>
<path d="M28.3535 25.84V27.49C28.7535 27.53 29.4535 27.55 30.4535 27.55C32.3335 27.55 34.0135 27.49 35.4935 27.37L36.2135 27.31V36.28C34.2735 36.96 31.5135 37.3 27.9335 37.3C24.3735 37.3 21.6435 36.39 19.7435 34.57C17.8635 32.75 16.9235 30.05 16.9235 26.47C16.9235 22.87 17.8535 20.22 19.7135 18.52C21.5735 16.82 24.3435 15.97 28.0235 15.97C29.5635 15.97 31.0135 16.06 32.3735 16.24C33.7535 16.42 34.7335 16.6 35.3135 16.78L36.2135 17.05V26.29C34.4735 25.99 31.8535 25.84 28.3535 25.84ZM37.0587 16.27H47.3787V29.29H50.4387V37H37.0587V16.27ZM51.2466 37V16.27H61.5666V37H51.2466ZM73.8469 25.84V27.49C74.2469 27.53 74.9469 27.55 75.9469 27.55C77.8269 27.55 79.5069 27.49 80.9869 27.37L81.7069 27.31V36.28C79.7669 36.96 77.0069 37.3 73.4269 37.3C69.8669 37.3 67.1369 36.39 65.2369 34.57C63.3569 32.75 62.4169 30.05 62.4169 26.47C62.4169 22.87 63.3469 20.22 65.2069 18.52C67.0669 16.82 69.8369 15.97 73.5169 15.97C75.0569 15.97 76.5069 16.06 77.8669 16.24C79.2469 16.42 80.2269 16.6 80.8069 16.78L81.7069 17.05V26.29C79.9669 25.99 77.3469 25.84 73.8469 25.84ZM92.872 31.3V37H82.552V16.27H92.872V25.63H93.532L94.822 16.27H105.322L101.662 26.62L105.322 37H94.762L93.532 31.3H92.872ZM105.705 16.27H122.505V25H116.025V26.2H122.505V28.09H116.025V29.29H122.775V37H105.705V16.27ZM133.904 30.94V37H123.584V16.27H134.474C138.054 16.27 140.684 16.86 142.364 18.04C144.044 19.2 144.884 21.22 144.884 24.1C144.884 26.28 144.174 27.89 142.754 28.93C143.954 31.07 144.864 33.76 145.484 37H135.614C135.454 34.98 135.174 33.2 134.774 31.66L134.564 30.94H133.904ZM133.904 28.51H134.774C135.014 28.51 135.214 28.43 135.374 28.27C135.534 28.11 135.614 27.9 135.614 27.64V25.84C135.614 25.58 135.534 25.38 135.374 25.24C135.214 25.08 135.014 25 134.774 25H133.904V28.51Z" fill="#F11919"/>
<path d="M28.3535 25.84V21.84H24.3535V25.84H28.3535ZM28.3535 27.49H24.3535V31.11L27.9555 31.4701L28.3535 27.49ZM35.4935 27.37L35.8168 31.3569L35.8257 31.3562L35.4935 27.37ZM36.2135 27.31H40.2135V22.9628L35.8813 23.3238L36.2135 27.31ZM36.2135 36.28L37.5366 40.0548L40.2135 39.1165V36.28H36.2135ZM19.7435 34.57L16.9613 37.4439L16.9689 37.4513L16.9766 37.4586L19.7435 34.57ZM19.7135 18.52L17.0149 15.5674L17.0149 15.5674L19.7135 18.52ZM32.3735 16.24L31.8487 20.2054L31.8562 20.2064L32.3735 16.24ZM35.3135 16.78L34.1279 20.6003L34.146 20.6059L34.1641 20.6113L35.3135 16.78ZM36.2135 17.05H40.2135V14.0739L37.3629 13.2187L36.2135 17.05ZM36.2135 26.29L35.5339 30.2318L40.2135 31.0387V26.29H36.2135ZM24.3535 25.84V27.49H32.3535V25.84H24.3535ZM27.9555 31.4701C28.5767 31.5323 29.4584 31.55 30.4535 31.55V23.55C29.4486 23.55 28.9304 23.5277 28.7515 23.5099L27.9555 31.4701ZM30.4535 31.55C32.4145 31.55 34.2054 31.4876 35.8168 31.3569L35.1703 23.3831C33.8216 23.4924 32.2525 23.55 30.4535 23.55V31.55ZM35.8257 31.3562L36.5457 31.2962L35.8813 23.3238L35.1613 23.3838L35.8257 31.3562ZM32.2135 27.31V36.28H40.2135V27.31H32.2135ZM34.8904 32.5052C33.5786 32.965 31.3453 33.3 27.9335 33.3V41.3C31.6817 41.3 34.9684 40.955 37.5366 40.0548L34.8904 32.5052ZM27.9335 33.3C25.0329 33.3 23.4349 32.5669 22.5105 31.6814L16.9766 37.4586C19.8521 40.2131 23.7141 41.3 27.9335 41.3V33.3ZM22.5257 31.6961C21.6764 30.8739 20.9235 29.377 20.9235 26.47H12.9235C12.9235 30.723 14.0506 34.6261 16.9613 37.4439L22.5257 31.6961ZM20.9235 26.47C20.9235 23.5014 21.6855 22.1366 22.4121 21.4726L17.0149 15.5674C14.0215 18.3033 12.9235 22.2386 12.9235 26.47H20.9235ZM22.4121 21.4726C23.2576 20.6998 24.8891 19.97 28.0235 19.97V11.97C23.7979 11.97 19.8895 12.9402 17.0149 15.5674L22.4121 21.4726ZM28.0235 19.97C29.4089 19.97 30.6823 20.051 31.8487 20.2054L32.8983 12.2746C31.3448 12.069 29.7181 11.97 28.0235 11.97V19.97ZM31.8562 20.2064C33.2233 20.3847 33.9044 20.5309 34.1279 20.6003L36.4991 12.9597C35.5626 12.6691 34.2837 12.4553 32.8909 12.2736L31.8562 20.2064ZM34.1641 20.6113L35.0641 20.8813L37.3629 13.2187L36.4629 12.9487L34.1641 20.6113ZM32.2135 17.05V26.29H40.2135V17.05H32.2135ZM36.8931 22.3482C34.8045 21.9881 31.9057 21.84 28.3535 21.84V29.84C31.8014 29.84 34.1425 29.9919 35.5339 30.2318L36.8931 22.3482ZM37.0587 16.27V12.27H33.0587V16.27H37.0587ZM47.3787 16.27H51.3787V12.27H47.3787V16.27ZM47.3787 29.29H43.3787V33.29H47.3787V29.29ZM50.4387 29.29H54.4387V25.29H50.4387V29.29ZM50.4387 37V41H54.4387V37H50.4387ZM37.0587 37H33.0587V41H37.0587V37ZM37.0587 20.27H47.3787V12.27H37.0587V20.27ZM43.3787 16.27V29.29H51.3787V16.27H43.3787ZM47.3787 33.29H50.4387V25.29H47.3787V33.29ZM46.4387 29.29V37H54.4387V29.29H46.4387ZM50.4387 33H37.0587V41H50.4387V33ZM41.0587 37V16.27H33.0587V37H41.0587ZM51.2466 37H47.2466V41H51.2466V37ZM51.2466 16.27V12.27H47.2466V16.27H51.2466ZM61.5666 16.27H65.5666V12.27H61.5666V16.27ZM61.5666 37V41H65.5666V37H61.5666ZM55.2466 37V16.27H47.2466V37H55.2466ZM51.2466 20.27H61.5666V12.27H51.2466V20.27ZM57.5666 16.27V37H65.5666V16.27H57.5666ZM61.5666 33H51.2466V41H61.5666V33ZM73.8469 25.84V21.84H69.8469V25.84H73.8469ZM73.8469 27.49H69.8469V31.11L73.4489 31.4701L73.8469 27.49ZM80.9869 27.37L81.3101 31.3569L81.3191 31.3562L80.9869 27.37ZM81.7069 27.31H85.7069V22.9628L81.3747 23.3238L81.7069 27.31ZM81.7069 36.28L83.03 40.0548L85.7069 39.1165V36.28H81.7069ZM65.2369 34.57L62.4547 37.4439L62.4623 37.4513L62.4699 37.4586L65.2369 34.57ZM65.2069 18.52L62.5083 15.5674L62.5083 15.5674L65.2069 18.52ZM77.8669 16.24L77.342 20.2054L77.3495 20.2064L77.8669 16.24ZM80.8069 16.78L79.6213 20.6003L79.6394 20.6059L79.6575 20.6113L80.8069 16.78ZM81.7069 17.05H85.7069V14.0739L82.8563 13.2187L81.7069 17.05ZM81.7069 26.29L81.0272 30.2318L85.7069 31.0387V26.29H81.7069ZM69.8469 25.84V27.49H77.8469V25.84H69.8469ZM73.4489 31.4701C74.07 31.5323 74.9517 31.55 75.9469 31.55V23.55C74.942 23.55 74.4237 23.5277 74.2449 23.5099L73.4489 31.4701ZM75.9469 31.55C77.9079 31.55 79.6988 31.4876 81.3101 31.3569L80.6636 23.3831C79.3149 23.4924 77.7458 23.55 75.9469 23.55V31.55ZM81.3191 31.3562L82.0391 31.2962L81.3747 23.3238L80.6547 23.3838L81.3191 31.3562ZM77.7069 27.31V36.28H85.7069V27.31H77.7069ZM80.3837 32.5052C79.072 32.965 76.8387 33.3 73.4269 33.3V41.3C77.1751 41.3 80.4618 40.955 83.03 40.0548L80.3837 32.5052ZM73.4269 33.3C70.5263 33.3 68.9282 32.5669 68.0038 31.6814L62.4699 37.4586C65.3455 40.2131 69.2075 41.3 73.4269 41.3V33.3ZM68.0191 31.6961C67.1698 30.8739 66.4169 29.377 66.4169 26.47H58.4169C58.4169 30.723 59.544 34.6261 62.4547 37.4439L68.0191 31.6961ZM66.4169 26.47C66.4169 23.5014 67.1789 22.1366 67.9055 21.4726L62.5083 15.5674C59.5149 18.3033 58.4169 22.2386 58.4169 26.47H66.4169ZM67.9055 21.4726C68.7509 20.6998 70.3825 19.97 73.5169 19.97V11.97C69.2913 11.97 65.3828 12.9402 62.5083 15.5674L67.9055 21.4726ZM73.5169 19.97C74.9023 19.97 76.1756 20.051 77.342 20.2054L78.3917 12.2746C76.8381 12.069 75.2115 11.97 73.5169 11.97V19.97ZM77.3495 20.2064C78.7167 20.3847 79.3978 20.5309 79.6213 20.6003L81.9925 12.9597C81.056 12.6691 79.7771 12.4553 78.3842 12.2736L77.3495 20.2064ZM79.6575 20.6113L80.5575 20.8813L82.8563 13.2187L81.9563 12.9487L79.6575 20.6113ZM77.7069 17.05V26.29H85.7069V17.05H77.7069ZM82.3865 22.3482C80.2979 21.9881 77.399 21.84 73.8469 21.84V29.84C77.2947 29.84 79.6359 29.9919 81.0272 30.2318L82.3865 22.3482ZM92.872 31.3V27.3H88.872V31.3H92.872ZM92.872 37V41H96.872V37H92.872ZM82.552 37H78.552V41H82.552V37ZM82.552 16.27V12.27H78.552V16.27H82.552ZM92.872 16.27H96.872V12.27H92.872V16.27ZM92.872 25.63H88.872V29.63H92.872V25.63ZM93.532 25.63V29.63H97.0186L97.4946 26.1761L93.532 25.63ZM94.822 16.27V12.27H91.3355L90.8595 15.7239L94.822 16.27ZM105.322 16.27L109.093 17.6036L110.979 12.27H105.322V16.27ZM101.662 26.62L97.8909 25.2864L97.42 26.6181L97.8897 27.9501L101.662 26.62ZM105.322 37V41H110.974L109.094 35.6699L105.322 37ZM94.762 37L90.852 37.8437L91.5331 41H94.762V37ZM93.532 31.3L97.442 30.4563L96.7609 27.3H93.532V31.3ZM88.872 31.3V37H96.872V31.3H88.872ZM92.872 33H82.552V41H92.872V33ZM86.552 37V16.27H78.552V37H86.552ZM82.552 20.27H92.872V12.27H82.552V20.27ZM88.872 16.27V25.63H96.872V16.27H88.872ZM92.872 29.63H93.532V21.63H92.872V29.63ZM97.4946 26.1761L98.7846 16.8161L90.8595 15.7239L89.5695 25.0839L97.4946 26.1761ZM94.822 20.27H105.322V12.27H94.822V20.27ZM101.551 14.9364L97.8909 25.2864L105.433 27.9536L109.093 17.6036L101.551 14.9364ZM97.8897 27.9501L101.55 38.3301L109.094 35.6699L105.434 25.2899L97.8897 27.9501ZM105.322 33H94.762V41H105.322V33ZM98.672 36.1563L97.442 30.4563L89.622 32.1437L90.852 37.8437L98.672 36.1563ZM93.532 27.3H92.872V35.3H93.532V27.3ZM105.705 16.27V12.27H101.705V16.27H105.705ZM122.505 16.27H126.505V12.27H122.505V16.27ZM122.505 25V29H126.505V25H122.505ZM116.025 25V21H112.025V25H116.025ZM116.025 26.2H112.025V30.2H116.025V26.2ZM122.505 26.2H126.505V22.2H122.505V26.2ZM122.505 28.09V32.09H126.505V28.09H122.505ZM116.025 28.09V24.09H112.025V28.09H116.025ZM116.025 29.29H112.025V33.29H116.025V29.29ZM122.775 29.29H126.775V25.29H122.775V29.29ZM122.775 37V41H126.775V37H122.775ZM105.705 37H101.705V41H105.705V37ZM105.705 20.27H122.505V12.27H105.705V20.27ZM118.505 16.27V25H126.505V16.27H118.505ZM122.505 21H116.025V29H122.505V21ZM112.025 25V26.2H120.025V25H112.025ZM116.025 30.2H122.505V22.2H116.025V30.2ZM118.505 26.2V28.09H126.505V26.2H118.505ZM122.505 24.09H116.025V32.09H122.505V24.09ZM112.025 28.09V29.29H120.025V28.09H112.025ZM116.025 33.29H122.775V25.29H116.025V33.29ZM118.775 29.29V37H126.775V29.29H118.775ZM122.775 33H105.705V41H122.775V33ZM109.705 37V16.27H101.705V37H109.705ZM133.904 30.94V26.94H129.904V30.94H133.904ZM133.904 37V41H137.904V37H133.904ZM123.584 37H119.584V41H123.584V37ZM123.584 16.27V12.27H119.584V16.27H123.584ZM142.364 18.04L140.065 21.3133L140.078 21.3225L140.091 21.3316L142.364 18.04ZM142.754 28.93L140.391 25.7029L137.532 27.7963L139.265 30.8864L142.754 28.93ZM145.484 37V41H150.322L149.413 36.2482L145.484 37ZM135.614 37L131.627 37.3158L131.918 41H135.614V37ZM134.774 31.66L138.646 30.6544L138.631 30.597L138.614 30.54L134.774 31.66ZM134.564 30.94L138.404 29.82L137.564 26.94H134.564V30.94ZM133.904 28.51H129.904V32.51H133.904V28.51ZM135.374 28.27L138.202 31.0984L138.202 31.0984L135.374 28.27ZM135.374 25.24L132.546 28.0684L132.64 28.1626L132.74 28.2503L135.374 25.24ZM133.904 25V21H129.904V25H133.904ZM129.904 30.94V37H137.904V30.94H129.904ZM133.904 33H123.584V41H133.904V33ZM127.584 37V16.27H119.584V37H127.584ZM123.584 20.27H134.474V12.27H123.584V20.27ZM134.474 20.27C137.773 20.27 139.396 20.8436 140.065 21.3133L144.663 14.7667C141.972 12.8764 138.335 12.27 134.474 12.27V20.27ZM140.091 21.3316C140.286 21.466 140.884 21.9525 140.884 24.1H148.884C148.884 20.4875 147.802 16.934 144.637 14.7484L140.091 21.3316ZM140.884 24.1C140.884 25.3448 140.535 25.5968 140.391 25.7029L145.118 32.1571C147.813 30.1832 148.884 27.2152 148.884 24.1H140.884ZM139.265 30.8864C140.196 32.547 140.99 34.7985 141.555 37.7518L149.413 36.2482C148.738 32.7215 147.712 29.593 146.243 26.9736L139.265 30.8864ZM145.484 33H135.614V41H145.484V33ZM139.602 36.6842C139.428 34.491 139.118 32.4719 138.646 30.6544L130.903 32.6656C131.23 33.9281 131.48 35.469 131.627 37.3158L139.602 36.6842ZM138.614 30.54L138.404 29.82L130.724 32.06L130.934 32.78L138.614 30.54ZM134.564 26.94H133.904V34.94H134.564V26.94ZM133.904 32.51H134.774V24.51H133.904V32.51ZM134.774 32.51C136.004 32.51 137.243 32.0576 138.202 31.0984L132.546 25.4416C132.829 25.1582 133.19 24.9074 133.618 24.7361C134.042 24.5667 134.443 24.51 134.774 24.51V32.51ZM138.202 31.0984C139.226 30.0751 139.614 28.7893 139.614 27.64H131.614C131.614 27.3586 131.658 26.9837 131.816 26.5685C131.978 26.1427 132.23 25.7575 132.546 25.4416L138.202 31.0984ZM139.614 27.64V25.84H131.614V27.64H139.614ZM139.614 25.84C139.614 24.7062 139.226 23.2958 138.008 22.2297L132.74 28.2503C132.338 27.8988 132.031 27.4589 131.84 26.9806C131.656 26.5213 131.614 26.1162 131.614 25.84H139.614ZM138.202 22.4116C137.243 21.4524 136.004 21 134.774 21V29C134.443 29 134.042 28.9433 133.618 28.7739C133.19 28.6026 132.829 28.3518 132.546 28.0684L138.202 22.4116ZM134.774 21H133.904V29H134.774V21ZM129.904 25V28.51H137.904V25H129.904Z" fill="black" mask="url(#path-7-outside-4_41_17)"/>
<mask id="path-9-outside-5_41_17" maskUnits="userSpaceOnUse" x="12" y="10" width="139" height="31" fill="black">
<rect fill="white" x="12" y="10" width="139" height="31"/>
<path d="M28.3535 24.84V26.49C28.7535 26.53 29.4535 26.55 30.4535 26.55C32.3335 26.55 34.0135 26.49 35.4935 26.37L36.2135 26.31V35.28C34.2735 35.96 31.5135 36.3 27.9335 36.3C24.3735 36.3 21.6435 35.39 19.7435 33.57C17.8635 31.75 16.9235 29.05 16.9235 25.47C16.9235 21.87 17.8535 19.22 19.7135 17.52C21.5735 15.82 24.3435 14.97 28.0235 14.97C29.5635 14.97 31.0135 15.06 32.3735 15.24C33.7535 15.42 34.7335 15.6 35.3135 15.78L36.2135 16.05V25.29C34.4735 24.99 31.8535 24.84 28.3535 24.84ZM37.0587 15.27H47.3787V28.29H50.4387V36H37.0587V15.27ZM51.2466 36V15.27H61.5666V36H51.2466ZM73.8469 24.84V26.49C74.2469 26.53 74.9469 26.55 75.9469 26.55C77.8269 26.55 79.5069 26.49 80.9869 26.37L81.7069 26.31V35.28C79.7669 35.96 77.0069 36.3 73.4269 36.3C69.8669 36.3 67.1369 35.39 65.2369 33.57C63.3569 31.75 62.4169 29.05 62.4169 25.47C62.4169 21.87 63.3469 19.22 65.2069 17.52C67.0669 15.82 69.8369 14.97 73.5169 14.97C75.0569 14.97 76.5069 15.06 77.8669 15.24C79.2469 15.42 80.2269 15.6 80.8069 15.78L81.7069 16.05V25.29C79.9669 24.99 77.3469 24.84 73.8469 24.84ZM92.872 30.3V36H82.552V15.27H92.872V24.63H93.532L94.822 15.27H105.322L101.662 25.62L105.322 36H94.762L93.532 30.3H92.872ZM105.705 15.27H122.505V24H116.025V25.2H122.505V27.09H116.025V28.29H122.775V36H105.705V15.27ZM133.904 29.94V36H123.584V15.27H134.474C138.054 15.27 140.684 15.86 142.364 17.04C144.044 18.2 144.884 20.22 144.884 23.1C144.884 25.28 144.174 26.89 142.754 27.93C143.954 30.07 144.864 32.76 145.484 36H135.614C135.454 33.98 135.174 32.2 134.774 30.66L134.564 29.94H133.904ZM133.904 27.51H134.774C135.014 27.51 135.214 27.43 135.374 27.27C135.534 27.11 135.614 26.9 135.614 26.64V24.84C135.614 24.58 135.534 24.38 135.374 24.24C135.214 24.08 135.014 24 134.774 24H133.904V27.51Z"/>
</mask>
<path d="M28.3535 24.84V26.49C28.7535 26.53 29.4535 26.55 30.4535 26.55C32.3335 26.55 34.0135 26.49 35.4935 26.37L36.2135 26.31V35.28C34.2735 35.96 31.5135 36.3 27.9335 36.3C24.3735 36.3 21.6435 35.39 19.7435 33.57C17.8635 31.75 16.9235 29.05 16.9235 25.47C16.9235 21.87 17.8535 19.22 19.7135 17.52C21.5735 15.82 24.3435 14.97 28.0235 14.97C29.5635 14.97 31.0135 15.06 32.3735 15.24C33.7535 15.42 34.7335 15.6 35.3135 15.78L36.2135 16.05V25.29C34.4735 24.99 31.8535 24.84 28.3535 24.84ZM37.0587 15.27H47.3787V28.29H50.4387V36H37.0587V15.27ZM51.2466 36V15.27H61.5666V36H51.2466ZM73.8469 24.84V26.49C74.2469 26.53 74.9469 26.55 75.9469 26.55C77.8269 26.55 79.5069 26.49 80.9869 26.37L81.7069 26.31V35.28C79.7669 35.96 77.0069 36.3 73.4269 36.3C69.8669 36.3 67.1369 35.39 65.2369 33.57C63.3569 31.75 62.4169 29.05 62.4169 25.47C62.4169 21.87 63.3469 19.22 65.2069 17.52C67.0669 15.82 69.8369 14.97 73.5169 14.97C75.0569 14.97 76.5069 15.06 77.8669 15.24C79.2469 15.42 80.2269 15.6 80.8069 15.78L81.7069 16.05V25.29C79.9669 24.99 77.3469 24.84 73.8469 24.84ZM92.872 30.3V36H82.552V15.27H92.872V24.63H93.532L94.822 15.27H105.322L101.662 25.62L105.322 36H94.762L93.532 30.3H92.872ZM105.705 15.27H122.505V24H116.025V25.2H122.505V27.09H116.025V28.29H122.775V36H105.705V15.27ZM133.904 29.94V36H123.584V15.27H134.474C138.054 15.27 140.684 15.86 142.364 17.04C144.044 18.2 144.884 20.22 144.884 23.1C144.884 25.28 144.174 26.89 142.754 27.93C143.954 30.07 144.864 32.76 145.484 36H135.614C135.454 33.98 135.174 32.2 134.774 30.66L134.564 29.94H133.904ZM133.904 27.51H134.774C135.014 27.51 135.214 27.43 135.374 27.27C135.534 27.11 135.614 26.9 135.614 26.64V24.84C135.614 24.58 135.534 24.38 135.374 24.24C135.214 24.08 135.014 24 134.774 24H133.904V27.51Z" fill="#F11919"/>
<path d="M28.3535 24.84V20.84H24.3535V24.84H28.3535ZM28.3535 26.49H24.3535V30.11L27.9555 30.4701L28.3535 26.49ZM35.4935 26.37L35.8168 30.3569L35.8257 30.3562L35.4935 26.37ZM36.2135 26.31H40.2135V21.9628L35.8813 22.3238L36.2135 26.31ZM36.2135 35.28L37.5366 39.0548L40.2135 38.1165V35.28H36.2135ZM19.7435 33.57L16.9613 36.4439L16.9689 36.4513L16.9766 36.4586L19.7435 33.57ZM19.7135 17.52L17.0149 14.5674L17.0149 14.5674L19.7135 17.52ZM32.3735 15.24L31.8487 19.2054L31.8562 19.2064L32.3735 15.24ZM35.3135 15.78L34.1279 19.6003L34.146 19.6059L34.1641 19.6113L35.3135 15.78ZM36.2135 16.05H40.2135V13.0739L37.3629 12.2187L36.2135 16.05ZM36.2135 25.29L35.5339 29.2318L40.2135 30.0387V25.29H36.2135ZM24.3535 24.84V26.49H32.3535V24.84H24.3535ZM27.9555 30.4701C28.5767 30.5323 29.4584 30.55 30.4535 30.55V22.55C29.4486 22.55 28.9304 22.5277 28.7515 22.5099L27.9555 30.4701ZM30.4535 30.55C32.4145 30.55 34.2054 30.4876 35.8168 30.3569L35.1703 22.3831C33.8216 22.4924 32.2525 22.55 30.4535 22.55V30.55ZM35.8257 30.3562L36.5457 30.2962L35.8813 22.3238L35.1613 22.3838L35.8257 30.3562ZM32.2135 26.31V35.28H40.2135V26.31H32.2135ZM34.8904 31.5052C33.5786 31.965 31.3453 32.3 27.9335 32.3V40.3C31.6817 40.3 34.9684 39.955 37.5366 39.0548L34.8904 31.5052ZM27.9335 32.3C25.0329 32.3 23.4349 31.5669 22.5105 30.6814L16.9766 36.4586C19.8521 39.2131 23.7141 40.3 27.9335 40.3V32.3ZM22.5257 30.6961C21.6764 29.8739 20.9235 28.377 20.9235 25.47H12.9235C12.9235 29.723 14.0506 33.6261 16.9613 36.4439L22.5257 30.6961ZM20.9235 25.47C20.9235 22.5014 21.6855 21.1366 22.4121 20.4726L17.0149 14.5674C14.0215 17.3033 12.9235 21.2386 12.9235 25.47H20.9235ZM22.4121 20.4726C23.2576 19.6998 24.8891 18.97 28.0235 18.97V10.97C23.7979 10.97 19.8895 11.9402 17.0149 14.5674L22.4121 20.4726ZM28.0235 18.97C29.4089 18.97 30.6823 19.051 31.8487 19.2054L32.8983 11.2746C31.3448 11.069 29.7181 10.97 28.0235 10.97V18.97ZM31.8562 19.2064C33.2233 19.3847 33.9044 19.5309 34.1279 19.6003L36.4991 11.9597C35.5626 11.6691 34.2837 11.4553 32.8909 11.2736L31.8562 19.2064ZM34.1641 19.6113L35.0641 19.8813L37.3629 12.2187L36.4629 11.9487L34.1641 19.6113ZM32.2135 16.05V25.29H40.2135V16.05H32.2135ZM36.8931 21.3482C34.8045 20.9881 31.9057 20.84 28.3535 20.84V28.84C31.8014 28.84 34.1425 28.9919 35.5339 29.2318L36.8931 21.3482ZM37.0587 15.27V11.27H33.0587V15.27H37.0587ZM47.3787 15.27H51.3787V11.27H47.3787V15.27ZM47.3787 28.29H43.3787V32.29H47.3787V28.29ZM50.4387 28.29H54.4387V24.29H50.4387V28.29ZM50.4387 36V40H54.4387V36H50.4387ZM37.0587 36H33.0587V40H37.0587V36ZM37.0587 19.27H47.3787V11.27H37.0587V19.27ZM43.3787 15.27V28.29H51.3787V15.27H43.3787ZM47.3787 32.29H50.4387V24.29H47.3787V32.29ZM46.4387 28.29V36H54.4387V28.29H46.4387ZM50.4387 32H37.0587V40H50.4387V32ZM41.0587 36V15.27H33.0587V36H41.0587ZM51.2466 36H47.2466V40H51.2466V36ZM51.2466 15.27V11.27H47.2466V15.27H51.2466ZM61.5666 15.27H65.5666V11.27H61.5666V15.27ZM61.5666 36V40H65.5666V36H61.5666ZM55.2466 36V15.27H47.2466V36H55.2466ZM51.2466 19.27H61.5666V11.27H51.2466V19.27ZM57.5666 15.27V36H65.5666V15.27H57.5666ZM61.5666 32H51.2466V40H61.5666V32ZM73.8469 24.84V20.84H69.8469V24.84H73.8469ZM73.8469 26.49H69.8469V30.11L73.4489 30.4701L73.8469 26.49ZM80.9869 26.37L81.3101 30.3569L81.3191 30.3562L80.9869 26.37ZM81.7069 26.31H85.7069V21.9628L81.3747 22.3238L81.7069 26.31ZM81.7069 35.28L83.03 39.0548L85.7069 38.1165V35.28H81.7069ZM65.2369 33.57L62.4547 36.4439L62.4623 36.4513L62.4699 36.4586L65.2369 33.57ZM65.2069 17.52L62.5083 14.5674L62.5083 14.5674L65.2069 17.52ZM77.8669 15.24L77.342 19.2054L77.3495 19.2064L77.8669 15.24ZM80.8069 15.78L79.6213 19.6003L79.6394 19.6059L79.6575 19.6113L80.8069 15.78ZM81.7069 16.05H85.7069V13.0739L82.8563 12.2187L81.7069 16.05ZM81.7069 25.29L81.0272 29.2318L85.7069 30.0387V25.29H81.7069ZM69.8469 24.84V26.49H77.8469V24.84H69.8469ZM73.4489 30.4701C74.07 30.5323 74.9517 30.55 75.9469 30.55V22.55C74.942 22.55 74.4237 22.5277 74.2449 22.5099L73.4489 30.4701ZM75.9469 30.55C77.9079 30.55 79.6988 30.4876 81.3101 30.3569L80.6636 22.3831C79.3149 22.4924 77.7458 22.55 75.9469 22.55V30.55ZM81.3191 30.3562L82.0391 30.2962L81.3747 22.3238L80.6547 22.3838L81.3191 30.3562ZM77.7069 26.31V35.28H85.7069V26.31H77.7069ZM80.3837 31.5052C79.072 31.965 76.8387 32.3 73.4269 32.3V40.3C77.1751 40.3 80.4618 39.955 83.03 39.0548L80.3837 31.5052ZM73.4269 32.3C70.5263 32.3 68.9282 31.5669 68.0038 30.6814L62.4699 36.4586C65.3455 39.2131 69.2075 40.3 73.4269 40.3V32.3ZM68.0191 30.6961C67.1698 29.8739 66.4169 28.377 66.4169 25.47H58.4169C58.4169 29.723 59.544 33.6261 62.4547 36.4439L68.0191 30.6961ZM66.4169 25.47C66.4169 22.5014 67.1789 21.1366 67.9055 20.4726L62.5083 14.5674C59.5149 17.3033 58.4169 21.2386 58.4169 25.47H66.4169ZM67.9055 20.4726C68.7509 19.6998 70.3825 18.97 73.5169 18.97V10.97C69.2913 10.97 65.3828 11.9402 62.5083 14.5674L67.9055 20.4726ZM73.5169 18.97C74.9023 18.97 76.1756 19.051 77.342 19.2054L78.3917 11.2746C76.8381 11.069 75.2115 10.97 73.5169 10.97V18.97ZM77.3495 19.2064C78.7167 19.3847 79.3978 19.5309 79.6213 19.6003L81.9925 11.9597C81.056 11.6691 79.7771 11.4553 78.3842 11.2736L77.3495 19.2064ZM79.6575 19.6113L80.5575 19.8813L82.8563 12.2187L81.9563 11.9487L79.6575 19.6113ZM77.7069 16.05V25.29H85.7069V16.05H77.7069ZM82.3865 21.3482C80.2979 20.9881 77.399 20.84 73.8469 20.84V28.84C77.2947 28.84 79.6359 28.9919 81.0272 29.2318L82.3865 21.3482ZM92.872 30.3V26.3H88.872V30.3H92.872ZM92.872 36V40H96.872V36H92.872ZM82.552 36H78.552V40H82.552V36ZM82.552 15.27V11.27H78.552V15.27H82.552ZM92.872 15.27H96.872V11.27H92.872V15.27ZM92.872 24.63H88.872V28.63H92.872V24.63ZM93.532 24.63V28.63H97.0186L97.4946 25.1761L93.532 24.63ZM94.822 15.27V11.27H91.3355L90.8595 14.7239L94.822 15.27ZM105.322 15.27L109.093 16.6036L110.979 11.27H105.322V15.27ZM101.662 25.62L97.8909 24.2864L97.42 25.6181L97.8897 26.9501L101.662 25.62ZM105.322 36V40H110.974L109.094 34.6699L105.322 36ZM94.762 36L90.852 36.8437L91.5331 40H94.762V36ZM93.532 30.3L97.442 29.4563L96.7609 26.3H93.532V30.3ZM88.872 30.3V36H96.872V30.3H88.872ZM92.872 32H82.552V40H92.872V32ZM86.552 36V15.27H78.552V36H86.552ZM82.552 19.27H92.872V11.27H82.552V19.27ZM88.872 15.27V24.63H96.872V15.27H88.872ZM92.872 28.63H93.532V20.63H92.872V28.63ZM97.4946 25.1761L98.7846 15.8161L90.8595 14.7239L89.5695 24.0839L97.4946 25.1761ZM94.822 19.27H105.322V11.27H94.822V19.27ZM101.551 13.9364L97.8909 24.2864L105.433 26.9536L109.093 16.6036L101.551 13.9364ZM97.8897 26.9501L101.55 37.3301L109.094 34.6699L105.434 24.2899L97.8897 26.9501ZM105.322 32H94.762V40H105.322V32ZM98.672 35.1563L97.442 29.4563L89.622 31.1437L90.852 36.8437L98.672 35.1563ZM93.532 26.3H92.872V34.3H93.532V26.3ZM105.705 15.27V11.27H101.705V15.27H105.705ZM122.505 15.27H126.505V11.27H122.505V15.27ZM122.505 24V28H126.505V24H122.505ZM116.025 24V20H112.025V24H116.025ZM116.025 25.2H112.025V29.2H116.025V25.2ZM122.505 25.2H126.505V21.2H122.505V25.2ZM122.505 27.09V31.09H126.505V27.09H122.505ZM116.025 27.09V23.09H112.025V27.09H116.025ZM116.025 28.29H112.025V32.29H116.025V28.29ZM122.775 28.29H126.775V24.29H122.775V28.29ZM122.775 36V40H126.775V36H122.775ZM105.705 36H101.705V40H105.705V36ZM105.705 19.27H122.505V11.27H105.705V19.27ZM118.505 15.27V24H126.505V15.27H118.505ZM122.505 20H116.025V28H122.505V20ZM112.025 24V25.2H120.025V24H112.025ZM116.025 29.2H122.505V21.2H116.025V29.2ZM118.505 25.2V27.09H126.505V25.2H118.505ZM122.505 23.09H116.025V31.09H122.505V23.09ZM112.025 27.09V28.29H120.025V27.09H112.025ZM116.025 32.29H122.775V24.29H116.025V32.29ZM118.775 28.29V36H126.775V28.29H118.775ZM122.775 32H105.705V40H122.775V32ZM109.705 36V15.27H101.705V36H109.705ZM133.904 29.94V25.94H129.904V29.94H133.904ZM133.904 36V40H137.904V36H133.904ZM123.584 36H119.584V40H123.584V36ZM123.584 15.27V11.27H119.584V15.27H123.584ZM142.364 17.04L140.065 20.3133L140.078 20.3225L140.091 20.3316L142.364 17.04ZM142.754 27.93L140.391 24.7029L137.532 26.7963L139.265 29.8864L142.754 27.93ZM145.484 36V40H150.322L149.413 35.2482L145.484 36ZM135.614 36L131.627 36.3158L131.918 40H135.614V36ZM134.774 30.66L138.646 29.6544L138.631 29.597L138.614 29.54L134.774 30.66ZM134.564 29.94L138.404 28.82L137.564 25.94H134.564V29.94ZM133.904 27.51H129.904V31.51H133.904V27.51ZM135.374 27.27L138.202 30.0984L138.202 30.0984L135.374 27.27ZM135.374 24.24L132.546 27.0684L132.64 27.1626L132.74 27.2503L135.374 24.24ZM133.904 24V20H129.904V24H133.904ZM129.904 29.94V36H137.904V29.94H129.904ZM133.904 32H123.584V40H133.904V32ZM127.584 36V15.27H119.584V36H127.584ZM123.584 19.27H134.474V11.27H123.584V19.27ZM134.474 19.27C137.773 19.27 139.396 19.8436 140.065 20.3133L144.663 13.7667C141.972 11.8764 138.335 11.27 134.474 11.27V19.27ZM140.091 20.3316C140.286 20.466 140.884 20.9525 140.884 23.1H148.884C148.884 19.4875 147.802 15.934 144.637 13.7484L140.091 20.3316ZM140.884 23.1C140.884 24.3448 140.535 24.5968 140.391 24.7029L145.118 31.1571C147.813 29.1832 148.884 26.2152 148.884 23.1H140.884ZM139.265 29.8864C140.196 31.547 140.99 33.7985 141.555 36.7518L149.413 35.2482C148.738 31.7215 147.712 28.593 146.243 25.9736L139.265 29.8864ZM145.484 32H135.614V40H145.484V32ZM139.602 35.6842C139.428 33.491 139.118 31.4719 138.646 29.6544L130.903 31.6656C131.23 32.9281 131.48 34.469 131.627 36.3158L139.602 35.6842ZM138.614 29.54L138.404 28.82L130.724 31.06L130.934 31.78L138.614 29.54ZM134.564 25.94H133.904V33.94H134.564V25.94ZM133.904 31.51H134.774V23.51H133.904V31.51ZM134.774 31.51C136.004 31.51 137.243 31.0576 138.202 30.0984L132.546 24.4416C132.829 24.1582 133.19 23.9074 133.618 23.7361C134.042 23.5667 134.443 23.51 134.774 23.51V31.51ZM138.202 30.0984C139.226 29.0751 139.614 27.7893 139.614 26.64H131.614C131.614 26.3586 131.658 25.9837 131.816 25.5685C131.978 25.1427 132.23 24.7575 132.546 24.4416L138.202 30.0984ZM139.614 26.64V24.84H131.614V26.64H139.614ZM139.614 24.84C139.614 23.7062 139.226 22.2958 138.008 21.2297L132.74 27.2503C132.338 26.8988 132.031 26.4589 131.84 25.9806C131.656 25.5213 131.614 25.1162 131.614 24.84H139.614ZM138.202 21.4116C137.243 20.4524 136.004 20 134.774 20V28C134.443 28 134.042 27.9433 133.618 27.7739C133.19 27.6026 132.829 27.3518 132.546 27.0684L138.202 21.4116ZM134.774 20H133.904V28H134.774V20ZM129.904 24V27.51H137.904V24H129.904Z" fill="black" mask="url(#path-9-outside-5_41_17)"/>
<mask id="path-11-outside-6_41_17" maskUnits="userSpaceOnUse" x="12" y="9" width="139" height="31" fill="black">
<rect fill="white" x="12" y="9" width="139" height="31"/>
<path d="M28.3535 23.84V25.49C28.7535 25.53 29.4535 25.55 30.4535 25.55C32.3335 25.55 34.0135 25.49 35.4935 25.37L36.2135 25.31V34.28C34.2735 34.96 31.5135 35.3 27.9335 35.3C24.3735 35.3 21.6435 34.39 19.7435 32.57C17.8635 30.75 16.9235 28.05 16.9235 24.47C16.9235 20.87 17.8535 18.22 19.7135 16.52C21.5735 14.82 24.3435 13.97 28.0235 13.97C29.5635 13.97 31.0135 14.06 32.3735 14.24C33.7535 14.42 34.7335 14.6 35.3135 14.78L36.2135 15.05V24.29C34.4735 23.99 31.8535 23.84 28.3535 23.84ZM37.0587 14.27H47.3787V27.29H50.4387V35H37.0587V14.27ZM51.2466 35V14.27H61.5666V35H51.2466ZM73.8469 23.84V25.49C74.2469 25.53 74.9469 25.55 75.9469 25.55C77.8269 25.55 79.5069 25.49 80.9869 25.37L81.7069 25.31V34.28C79.7669 34.96 77.0069 35.3 73.4269 35.3C69.8669 35.3 67.1369 34.39 65.2369 32.57C63.3569 30.75 62.4169 28.05 62.4169 24.47C62.4169 20.87 63.3469 18.22 65.2069 16.52C67.0669 14.82 69.8369 13.97 73.5169 13.97C75.0569 13.97 76.5069 14.06 77.8669 14.24C79.2469 14.42 80.2269 14.6 80.8069 14.78L81.7069 15.05V24.29C79.9669 23.99 77.3469 23.84 73.8469 23.84ZM92.872 29.3V35H82.552V14.27H92.872V23.63H93.532L94.822 14.27H105.322L101.662 24.62L105.322 35H94.762L93.532 29.3H92.872ZM105.705 14.27H122.505V23H116.025V24.2H122.505V26.09H116.025V27.29H122.775V35H105.705V14.27ZM133.904 28.94V35H123.584V14.27H134.474C138.054 14.27 140.684 14.86 142.364 16.04C144.044 17.2 144.884 19.22 144.884 22.1C144.884 24.28 144.174 25.89 142.754 26.93C143.954 29.07 144.864 31.76 145.484 35H135.614C135.454 32.98 135.174 31.2 134.774 29.66L134.564 28.94H133.904ZM133.904 26.51H134.774C135.014 26.51 135.214 26.43 135.374 26.27C135.534 26.11 135.614 25.9 135.614 25.64V23.84C135.614 23.58 135.534 23.38 135.374 23.24C135.214 23.08 135.014 23 134.774 23H133.904V26.51Z"/>
</mask>
<path d="M28.3535 23.84V25.49C28.7535 25.53 29.4535 25.55 30.4535 25.55C32.3335 25.55 34.0135 25.49 35.4935 25.37L36.2135 25.31V34.28C34.2735 34.96 31.5135 35.3 27.9335 35.3C24.3735 35.3 21.6435 34.39 19.7435 32.57C17.8635 30.75 16.9235 28.05 16.9235 24.47C16.9235 20.87 17.8535 18.22 19.7135 16.52C21.5735 14.82 24.3435 13.97 28.0235 13.97C29.5635 13.97 31.0135 14.06 32.3735 14.24C33.7535 14.42 34.7335 14.6 35.3135 14.78L36.2135 15.05V24.29C34.4735 23.99 31.8535 23.84 28.3535 23.84ZM37.0587 14.27H47.3787V27.29H50.4387V35H37.0587V14.27ZM51.2466 35V14.27H61.5666V35H51.2466ZM73.8469 23.84V25.49C74.2469 25.53 74.9469 25.55 75.9469 25.55C77.8269 25.55 79.5069 25.49 80.9869 25.37L81.7069 25.31V34.28C79.7669 34.96 77.0069 35.3 73.4269 35.3C69.8669 35.3 67.1369 34.39 65.2369 32.57C63.3569 30.75 62.4169 28.05 62.4169 24.47C62.4169 20.87 63.3469 18.22 65.2069 16.52C67.0669 14.82 69.8369 13.97 73.5169 13.97C75.0569 13.97 76.5069 14.06 77.8669 14.24C79.2469 14.42 80.2269 14.6 80.8069 14.78L81.7069 15.05V24.29C79.9669 23.99 77.3469 23.84 73.8469 23.84ZM92.872 29.3V35H82.552V14.27H92.872V23.63H93.532L94.822 14.27H105.322L101.662 24.62L105.322 35H94.762L93.532 29.3H92.872ZM105.705 14.27H122.505V23H116.025V24.2H122.505V26.09H116.025V27.29H122.775V35H105.705V14.27ZM133.904 28.94V35H123.584V14.27H134.474C138.054 14.27 140.684 14.86 142.364 16.04C144.044 17.2 144.884 19.22 144.884 22.1C144.884 24.28 144.174 25.89 142.754 26.93C143.954 29.07 144.864 31.76 145.484 35H135.614C135.454 32.98 135.174 31.2 134.774 29.66L134.564 28.94H133.904ZM133.904 26.51H134.774C135.014 26.51 135.214 26.43 135.374 26.27C135.534 26.11 135.614 25.9 135.614 25.64V23.84C135.614 23.58 135.534 23.38 135.374 23.24C135.214 23.08 135.014 23 134.774 23H133.904V26.51Z" fill="#F11919"/>
<path d="M28.3535 23.84V19.84H24.3535V23.84H28.3535ZM28.3535 25.49H24.3535V29.11L27.9555 29.4701L28.3535 25.49ZM35.4935 25.37L35.8168 29.3569L35.8257 29.3562L35.4935 25.37ZM36.2135 25.31H40.2135V20.9628L35.8813 21.3238L36.2135 25.31ZM36.2135 34.28L37.5366 38.0548L40.2135 37.1165V34.28H36.2135ZM19.7435 32.57L16.9613 35.4439L16.9689 35.4513L16.9766 35.4586L19.7435 32.57ZM19.7135 16.52L17.0149 13.5674L17.0149 13.5674L19.7135 16.52ZM32.3735 14.24L31.8487 18.2054L31.8562 18.2064L32.3735 14.24ZM35.3135 14.78L34.1279 18.6003L34.146 18.6059L34.1641 18.6113L35.3135 14.78ZM36.2135 15.05H40.2135V12.0739L37.3629 11.2187L36.2135 15.05ZM36.2135 24.29L35.5339 28.2318L40.2135 29.0387V24.29H36.2135ZM24.3535 23.84V25.49H32.3535V23.84H24.3535ZM27.9555 29.4701C28.5767 29.5323 29.4584 29.55 30.4535 29.55V21.55C29.4486 21.55 28.9304 21.5277 28.7515 21.5099L27.9555 29.4701ZM30.4535 29.55C32.4145 29.55 34.2054 29.4876 35.8168 29.3569L35.1703 21.3831C33.8216 21.4924 32.2525 21.55 30.4535 21.55V29.55ZM35.8257 29.3562L36.5457 29.2962L35.8813 21.3238L35.1613 21.3838L35.8257 29.3562ZM32.2135 25.31V34.28H40.2135V25.31H32.2135ZM34.8904 30.5052C33.5786 30.965 31.3453 31.3 27.9335 31.3V39.3C31.6817 39.3 34.9684 38.955 37.5366 38.0548L34.8904 30.5052ZM27.9335 31.3C25.0329 31.3 23.4349 30.5669 22.5105 29.6814L16.9766 35.4586C19.8521 38.2131 23.7141 39.3 27.9335 39.3V31.3ZM22.5257 29.6961C21.6764 28.8739 20.9235 27.377 20.9235 24.47H12.9235C12.9235 28.723 14.0506 32.6261 16.9613 35.4439L22.5257 29.6961ZM20.9235 24.47C20.9235 21.5014 21.6855 20.1366 22.4121 19.4726L17.0149 13.5674C14.0215 16.3033 12.9235 20.2386 12.9235 24.47H20.9235ZM22.4121 19.4726C23.2576 18.6998 24.8891 17.97 28.0235 17.97V9.97C23.7979 9.97 19.8895 10.9402 17.0149 13.5674L22.4121 19.4726ZM28.0235 17.97C29.4089 17.97 30.6823 18.051 31.8487 18.2054L32.8983 10.2746C31.3448 10.069 29.7181 9.97 28.0235 9.97V17.97ZM31.8562 18.2064C33.2233 18.3847 33.9044 18.5309 34.1279 18.6003L36.4991 10.9597C35.5626 10.6691 34.2837 10.4553 32.8909 10.2736L31.8562 18.2064ZM34.1641 18.6113L35.0641 18.8813L37.3629 11.2187L36.4629 10.9487L34.1641 18.6113ZM32.2135 15.05V24.29H40.2135V15.05H32.2135ZM36.8931 20.3482C34.8045 19.9881 31.9057 19.84 28.3535 19.84V27.84C31.8014 27.84 34.1425 27.9919 35.5339 28.2318L36.8931 20.3482ZM37.0587 14.27V10.27H33.0587V14.27H37.0587ZM47.3787 14.27H51.3787V10.27H47.3787V14.27ZM47.3787 27.29H43.3787V31.29H47.3787V27.29ZM50.4387 27.29H54.4387V23.29H50.4387V27.29ZM50.4387 35V39H54.4387V35H50.4387ZM37.0587 35H33.0587V39H37.0587V35ZM37.0587 18.27H47.3787V10.27H37.0587V18.27ZM43.3787 14.27V27.29H51.3787V14.27H43.3787ZM47.3787 31.29H50.4387V23.29H47.3787V31.29ZM46.4387 27.29V35H54.4387V27.29H46.4387ZM50.4387 31H37.0587V39H50.4387V31ZM41.0587 35V14.27H33.0587V35H41.0587ZM51.2466 35H47.2466V39H51.2466V35ZM51.2466 14.27V10.27H47.2466V14.27H51.2466ZM61.5666 14.27H65.5666V10.27H61.5666V14.27ZM61.5666 35V39H65.5666V35H61.5666ZM55.2466 35V14.27H47.2466V35H55.2466ZM51.2466 18.27H61.5666V10.27H51.2466V18.27ZM57.5666 14.27V35H65.5666V14.27H57.5666ZM61.5666 31H51.2466V39H61.5666V31ZM73.8469 23.84V19.84H69.8469V23.84H73.8469ZM73.8469 25.49H69.8469V29.11L73.4489 29.4701L73.8469 25.49ZM80.9869 25.37L81.3101 29.3569L81.3191 29.3562L80.9869 25.37ZM81.7069 25.31H85.7069V20.9628L81.3747 21.3238L81.7069 25.31ZM81.7069 34.28L83.03 38.0548L85.7069 37.1165V34.28H81.7069ZM65.2369 32.57L62.4547 35.4439L62.4623 35.4513L62.4699 35.4586L65.2369 32.57ZM65.2069 16.52L62.5083 13.5674L62.5083 13.5674L65.2069 16.52ZM77.8669 14.24L77.342 18.2054L77.3495 18.2064L77.8669 14.24ZM80.8069 14.78L79.6213 18.6003L79.6394 18.6059L79.6575 18.6113L80.8069 14.78ZM81.7069 15.05H85.7069V12.0739L82.8563 11.2187L81.7069 15.05ZM81.7069 24.29L81.0272 28.2318L85.7069 29.0387V24.29H81.7069ZM69.8469 23.84V25.49H77.8469V23.84H69.8469ZM73.4489 29.4701C74.07 29.5323 74.9517 29.55 75.9469 29.55V21.55C74.942 21.55 74.4237 21.5277 74.2449 21.5099L73.4489 29.4701ZM75.9469 29.55C77.9079 29.55 79.6988 29.4876 81.3101 29.3569L80.6636 21.3831C79.3149 21.4924 77.7458 21.55 75.9469 21.55V29.55ZM81.3191 29.3562L82.0391 29.2962L81.3747 21.3238L80.6547 21.3838L81.3191 29.3562ZM77.7069 25.31V34.28H85.7069V25.31H77.7069ZM80.3837 30.5052C79.072 30.965 76.8387 31.3 73.4269 31.3V39.3C77.1751 39.3 80.4618 38.955 83.03 38.0548L80.3837 30.5052ZM73.4269 31.3C70.5263 31.3 68.9282 30.5669 68.0038 29.6814L62.4699 35.4586C65.3455 38.2131 69.2075 39.3 73.4269 39.3V31.3ZM68.0191 29.6961C67.1698 28.8739 66.4169 27.377 66.4169 24.47H58.4169C58.4169 28.723 59.544 32.6261 62.4547 35.4439L68.0191 29.6961ZM66.4169 24.47C66.4169 21.5014 67.1789 20.1366 67.9055 19.4726L62.5083 13.5674C59.5149 16.3033 58.4169 20.2386 58.4169 24.47H66.4169ZM67.9055 19.4726C68.7509 18.6998 70.3825 17.97 73.5169 17.97V9.97C69.2913 9.97 65.3828 10.9402 62.5083 13.5674L67.9055 19.4726ZM73.5169 17.97C74.9023 17.97 76.1756 18.051 77.342 18.2054L78.3917 10.2746C76.8381 10.069 75.2115 9.97 73.5169 9.97V17.97ZM77.3495 18.2064C78.7167 18.3847 79.3978 18.5309 79.6213 18.6003L81.9925 10.9597C81.056 10.6691 79.7771 10.4553 78.3842 10.2736L77.3495 18.2064ZM79.6575 18.6113L80.5575 18.8813L82.8563 11.2187L81.9563 10.9487L79.6575 18.6113ZM77.7069 15.05V24.29H85.7069V15.05H77.7069ZM82.3865 20.3482C80.2979 19.9881 77.399 19.84 73.8469 19.84V27.84C77.2947 27.84 79.6359 27.9919 81.0272 28.2318L82.3865 20.3482ZM92.872 29.3V25.3H88.872V29.3H92.872ZM92.872 35V39H96.872V35H92.872ZM82.552 35H78.552V39H82.552V35ZM82.552 14.27V10.27H78.552V14.27H82.552ZM92.872 14.27H96.872V10.27H92.872V14.27ZM92.872 23.63H88.872V27.63H92.872V23.63ZM93.532 23.63V27.63H97.0186L97.4946 24.1761L93.532 23.63ZM94.822 14.27V10.27H91.3355L90.8595 13.7239L94.822 14.27ZM105.322 14.27L109.093 15.6036L110.979 10.27H105.322V14.27ZM101.662 24.62L97.8909 23.2864L97.42 24.6181L97.8897 25.9501L101.662 24.62ZM105.322 35V39H110.974L109.094 33.6699L105.322 35ZM94.762 35L90.852 35.8437L91.5331 39H94.762V35ZM93.532 29.3L97.442 28.4563L96.7609 25.3H93.532V29.3ZM88.872 29.3V35H96.872V29.3H88.872ZM92.872 31H82.552V39H92.872V31ZM86.552 35V14.27H78.552V35H86.552ZM82.552 18.27H92.872V10.27H82.552V18.27ZM88.872 14.27V23.63H96.872V14.27H88.872ZM92.872 27.63H93.532V19.63H92.872V27.63ZM97.4946 24.1761L98.7846 14.8161L90.8595 13.7239L89.5695 23.0839L97.4946 24.1761ZM94.822 18.27H105.322V10.27H94.822V18.27ZM101.551 12.9364L97.8909 23.2864L105.433 25.9536L109.093 15.6036L101.551 12.9364ZM97.8897 25.9501L101.55 36.3301L109.094 33.6699L105.434 23.2899L97.8897 25.9501ZM105.322 31H94.762V39H105.322V31ZM98.672 34.1563L97.442 28.4563L89.622 30.1437L90.852 35.8437L98.672 34.1563ZM93.532 25.3H92.872V33.3H93.532V25.3ZM105.705 14.27V10.27H101.705V14.27H105.705ZM122.505 14.27H126.505V10.27H122.505V14.27ZM122.505 23V27H126.505V23H122.505ZM116.025 23V19H112.025V23H116.025ZM116.025 24.2H112.025V28.2H116.025V24.2ZM122.505 24.2H126.505V20.2H122.505V24.2ZM122.505 26.09V30.09H126.505V26.09H122.505ZM116.025 26.09V22.09H112.025V26.09H116.025ZM116.025 27.29H112.025V31.29H116.025V27.29ZM122.775 27.29H126.775V23.29H122.775V27.29ZM122.775 35V39H126.775V35H122.775ZM105.705 35H101.705V39H105.705V35ZM105.705 18.27H122.505V10.27H105.705V18.27ZM118.505 14.27V23H126.505V14.27H118.505ZM122.505 19H116.025V27H122.505V19ZM112.025 23V24.2H120.025V23H112.025ZM116.025 28.2H122.505V20.2H116.025V28.2ZM118.505 24.2V26.09H126.505V24.2H118.505ZM122.505 22.09H116.025V30.09H122.505V22.09ZM112.025 26.09V27.29H120.025V26.09H112.025ZM116.025 31.29H122.775V23.29H116.025V31.29ZM118.775 27.29V35H126.775V27.29H118.775ZM122.775 31H105.705V39H122.775V31ZM109.705 35V14.27H101.705V35H109.705ZM133.904 28.94V24.94H129.904V28.94H133.904ZM133.904 35V39H137.904V35H133.904ZM123.584 35H119.584V39H123.584V35ZM123.584 14.27V10.27H119.584V14.27H123.584ZM142.364 16.04L140.065 19.3133L140.078 19.3225L140.091 19.3316L142.364 16.04ZM142.754 26.93L140.391 23.7029L137.532 25.7963L139.265 28.8864L142.754 26.93ZM145.484 35V39H150.322L149.413 34.2482L145.484 35ZM135.614 35L131.627 35.3158L131.918 39H135.614V35ZM134.774 29.66L138.646 28.6544L138.631 28.597L138.614 28.54L134.774 29.66ZM134.564 28.94L138.404 27.82L137.564 24.94H134.564V28.94ZM133.904 26.51H129.904V30.51H133.904V26.51ZM135.374 26.27L138.202 29.0984L138.202 29.0984L135.374 26.27ZM135.374 23.24L132.546 26.0684L132.64 26.1626L132.74 26.2503L135.374 23.24ZM133.904 23V19H129.904V23H133.904ZM129.904 28.94V35H137.904V28.94H129.904ZM133.904 31H123.584V39H133.904V31ZM127.584 35V14.27H119.584V35H127.584ZM123.584 18.27H134.474V10.27H123.584V18.27ZM134.474 18.27C137.773 18.27 139.396 18.8436 140.065 19.3133L144.663 12.7667C141.972 10.8764 138.335 10.27 134.474 10.27V18.27ZM140.091 19.3316C140.286 19.466 140.884 19.9525 140.884 22.1H148.884C148.884 18.4875 147.802 14.934 144.637 12.7484L140.091 19.3316ZM140.884 22.1C140.884 23.3448 140.535 23.5968 140.391 23.7029L145.118 30.1571C147.813 28.1832 148.884 25.2152 148.884 22.1H140.884ZM139.265 28.8864C140.196 30.547 140.99 32.7985 141.555 35.7518L149.413 34.2482C148.738 30.7215 147.712 27.593 146.243 24.9736L139.265 28.8864ZM145.484 31H135.614V39H145.484V31ZM139.602 34.6842C139.428 32.491 139.118 30.4719 138.646 28.6544L130.903 30.6656C131.23 31.9281 131.48 33.469 131.627 35.3158L139.602 34.6842ZM138.614 28.54L138.404 27.82L130.724 30.06L130.934 30.78L138.614 28.54ZM134.564 24.94H133.904V32.94H134.564V24.94ZM133.904 30.51H134.774V22.51H133.904V30.51ZM134.774 30.51C136.004 30.51 137.243 30.0576 138.202 29.0984L132.546 23.4416C132.829 23.1582 133.19 22.9074 133.618 22.7361C134.042 22.5667 134.443 22.51 134.774 22.51V30.51ZM138.202 29.0984C139.226 28.0751 139.614 26.7893 139.614 25.64H131.614C131.614 25.3586 131.658 24.9837 131.816 24.5685C131.978 24.1427 132.23 23.7575 132.546 23.4416L138.202 29.0984ZM139.614 25.64V23.84H131.614V25.64H139.614ZM139.614 23.84C139.614 22.7062 139.226 21.2958 138.008 20.2297L132.74 26.2503C132.338 25.8988 132.031 25.4589 131.84 24.9806C131.656 24.5213 131.614 24.1162 131.614 23.84H139.614ZM138.202 20.4116C137.243 19.4524 136.004 19 134.774 19V27C134.443 27 134.042 26.9433 133.618 26.7739C133.19 26.6026 132.829 26.3518 132.546 26.0684L138.202 20.4116ZM134.774 19H133.904V27H134.774V19ZM129.904 23V26.51H137.904V23H129.904Z" fill="black" mask="url(#path-11-outside-6_41_17)"/>
</svg>
