<svg width="600" height="68" viewBox="0 0 600 68" fill="none" xmlns="http://www.w3.org/2000/svg">
<rect width="600" height="68" fill="#96D1FA"/>
<path d="M318.998 38.3125C318.998 48.6355 310.494 57 299.999 57C289.504 57 281 48.6355 281 38.3125C281 28.9688 287.97 21.2242 297.076 19.8496V16.75H294.519C293.916 16.75 293.422 16.2649 293.422 15.6719V12.0781C293.422 11.4851 293.916 11 294.519 11H305.48C306.082 11 306.575 11.4851 306.575 12.0781V15.6719C306.575 16.2649 306.082 16.75 305.48 16.75H302.922V19.8496C306.347 20.3707 309.471 21.7903 312.029 23.8566L314.54 21.3859C314.97 20.9637 315.664 20.9637 316.093 21.3859L318.678 23.9285C319.107 24.3508 319.107 25.0336 318.678 25.4558L315.993 28.0973L315.938 28.1512C317.874 31.0621 318.998 34.557 318.998 38.3125ZM302.922 41.5469V27.9355C302.922 27.3426 302.428 26.8574 301.826 26.8574H298.172C297.569 26.8574 297.076 27.3426 297.076 27.9355V41.5469C297.076 42.1399 297.569 42.625 298.172 42.625H301.826C302.428 42.625 302.922 42.1399 302.922 41.5469Z" fill="#46B1FB"/>
</svg>
