<svg width="600" height="68" viewBox="0 0 600 68" fill="none" xmlns="http://www.w3.org/2000/svg">
<rect width="600" height="68" fill="#FADA96"/>
<path d="M319.25 20.125H311.667V17.2344C311.667 16.2732 310.886 15.5 309.917 15.5H290.083C289.114 15.5 288.333 16.2732 288.333 17.2344V20.125H280.75C279.78 20.125 279 20.8982 279 21.8594V25.9062C279 28.4861 280.641 31.1383 283.514 33.1834C285.81 34.8238 288.603 35.8645 291.534 36.1969C293.824 39.9619 296.5 41.5156 296.5 41.5156V46.7188H293C290.426 46.7188 288.333 48.2146 288.333 50.7656V51.6328C288.333 52.1098 288.727 52.5 289.208 52.5H310.792C311.273 52.5 311.667 52.1098 311.667 51.6328V50.7656C311.667 48.2146 309.574 46.7188 307 46.7188H303.5V41.5156C303.5 41.5156 306.176 39.9619 308.466 36.1969C311.404 35.8645 314.197 34.8238 316.486 33.1834C319.352 31.1383 321 28.4861 321 25.9062V21.8594C321 20.8982 320.22 20.125 319.25 20.125ZM286.241 29.4328C284.461 28.1609 283.667 26.7445 283.667 25.9062V24.75H288.348C288.421 27.1059 288.771 29.1727 289.281 30.9793C288.18 30.6035 287.152 30.0832 286.241 29.4328ZM316.333 25.9062C316.333 27.0697 315.043 28.515 313.759 29.4328C312.848 30.0832 311.812 30.6035 310.711 30.9793C311.222 29.1727 311.572 27.1059 311.645 24.75H316.333V25.9062Z" fill="#FBB546"/>
</svg>
